<?xml version="1.0" standalone="no"?>
<!DOCTYPE svg PUBLIC "-//W3C//DTD SVG 20010904//EN"
 "http://www.w3.org/TR/2001/REC-SVG-20010904/DTD/svg10.dtd">
<svg version="1.0" xmlns="http://www.w3.org/2000/svg"
 width="612.000000pt" height="408.000000pt" viewBox="0 0 612.000000 408.000000"
 preserveAspectRatio="xMidYMid meet">

<g transform="translate(0.000000,408.000000) scale(0.100000,-0.100000)"
fill="#000000" stroke="none">
<path d="M2190 3460 c-155 -21 -198 -71 -294 -345 -31 -88 -66 -180 -77 -203
-33 -73 -35 -122 -7 -184 29 -63 134 -180 179 -198 20 -9 28 -18 24 -28 -19
-49 -27 -112 -23 -175 10 -143 90 -244 261 -327 57 -27 143 -59 195 -71 105
-25 104 -24 76 -120 -30 -100 -71 -164 -179 -280 -59 -63 -126 -143 -149 -179
-40 -59 -96 -183 -96 -209 0 -24 -22 -7 -74 57 -123 152 -171 270 -182 444 -5
79 -3 113 9 146 21 60 3 63 -49 7 -94 -102 -151 -270 -141 -419 5 -81 5 -81
-13 -56 -53 72 -51 73 -48 -25 3 -87 5 -93 45 -160 24 -39 55 -85 70 -104 28
-35 28 -35 -22 -15 -36 15 -11 -33 48 -90 54 -53 75 -66 135 -86 57 -18 87
-22 140 -17 37 2 74 8 83 11 10 5 19 -1 27 -18 21 -46 86 -108 137 -130 74
-33 202 -56 314 -56 141 0 181 19 181 84 0 33 13 33 28 2 20 -44 73 -95 117
-112 97 -36 251 1 274 67 l11 31 19 -23 c18 -22 26 -24 118 -24 84 0 104 3
136 23 21 12 53 22 71 22 49 0 71 21 71 69 0 31 -7 47 -30 71 -16 17 -40 33
-53 37 -17 4 -21 10 -16 22 32 75 36 100 30 182 -4 58 -1 112 9 163 27 138 16
241 -49 466 -35 121 -42 179 -30 250 5 30 15 40 64 69 118 68 212 189 240 309
7 28 15 52 18 52 3 0 13 -7 23 -16 24 -22 92 -29 129 -14 73 30 164 182 202
338 16 65 22 121 22 217 1 125 0 132 -27 177 -33 56 -63 80 -182 145 -49 27
-141 77 -202 112 -97 55 -121 64 -177 68 -56 5 -69 2 -116 -23 -28 -15 -60
-39 -71 -52 l-19 -25 -47 21 c-98 41 -199 57 -368 57 -144 0 -171 -3 -268 -29
l-109 -28 -36 35 c-52 50 -111 76 -195 87 -80 10 -80 10 -157 0z m88 -47 c-10
-2 -26 -2 -35 0 -10 3 -2 5 17 5 19 0 27 -2 18 -5z m-113 -32 c-6 -5 -25 10
-25 20 0 5 6 4 14 -3 8 -7 12 -15 11 -17z m265 13 c0 -2 -9 -4 -21 -4 -11 0
-18 4 -14 10 5 8 35 3 35 -6z m-75 -24 c-3 -5 -11 -10 -16 -10 -6 0 -7 5 -4
10 3 6 11 10 16 10 6 0 7 -4 4 -10z m1155 -4 c0 -2 -12 -11 -27 -20 l-28 -17
24 20 c23 21 31 25 31 17z m131 -13 c13 -16 12 -17 -3 -4 -17 13 -22 21 -14
21 2 0 10 -8 17 -17z m-1132 -34 c-5 -10 -17 -18 -27 -18 -16 1 -16 2 1 6 19
5 22 18 7 28 -6 4 -8 11 -4 16 4 6 11 6 20 -2 10 -8 11 -16 3 -30z m696 12
c109 -28 132 -39 138 -63 5 -17 11 -19 34 -14 21 5 24 4 13 -4 -9 -6 -10 -10
-3 -10 21 0 58 -43 102 -115 41 -69 70 -148 92 -255 24 -119 82 -281 134 -377
33 -60 34 -65 25 -115 -29 -150 -121 -261 -289 -347 -99 -51 -123 -79 -57 -67
l32 6 0 -87 c0 -72 7 -111 37 -213 20 -69 42 -156 48 -194 24 -144 -9 -308
-107 -530 -24 -54 -44 -100 -44 -102 0 -1 18 -13 41 -26 23 -12 48 -36 56 -52
15 -28 14 -31 -7 -48 -22 -18 -23 -18 -40 14 -18 34 -45 56 -56 46 -3 -4 1
-17 10 -30 9 -12 16 -31 16 -41 0 -16 -8 -18 -67 -15 -67 3 -68 4 -85 38 -14
26 -18 60 -18 137 0 92 3 107 31 170 93 204 147 483 93 483 -8 0 -15 -18 -18
-47 -19 -164 -62 -313 -128 -451 -46 -95 -113 -202 -127 -202 -17 0 -21 48
-21 293 0 229 -6 282 -25 225 -12 -35 -18 -468 -8 -508 8 -30 16 -37 59 -52
76 -27 103 -71 67 -110 -25 -28 -43 -22 -43 15 0 32 -14 57 -32 57 -5 0 -6
-15 -3 -34 12 -62 1 -76 -62 -76 -30 0 -70 7 -88 16 -96 45 -197 317 -226 607
-7 67 -16 129 -20 137 -14 28 -31 -41 -27 -112 l4 -67 -28 34 c-42 50 -127 88
-197 88 -55 0 -101 -15 -101 -33 0 -4 30 -8 68 -7 154 3 266 -108 266 -263 1
-55 -4 -72 -27 -106 -29 -43 -38 -49 -125 -85 -29 -12 -50 -24 -46 -28 3 -3
47 -6 98 -6 83 0 96 -3 133 -27 41 -27 60 -67 40 -87 -18 -18 -31 -12 -47 22
-10 20 -24 33 -39 35 -22 4 -23 3 -7 -19 9 -13 16 -31 16 -41 0 -16 -10 -18
-77 -18 -92 0 -243 30 -299 58 -44 23 -75 54 -92 94 -11 26 0 50 15 34 4 -3 1
-6 -6 -6 -7 0 -10 -4 -6 -10 3 -5 13 -7 23 -4 14 5 15 4 2 -5 -8 -5 -12 -13
-8 -16 10 -10 92 42 132 82 20 21 37 50 41 72 3 20 9 44 12 55 3 11 1 16 -5
12 -6 -4 -8 2 -5 14 8 29 -16 82 -34 76 -8 -3 -11 -2 -8 4 9 14 -30 31 -67 29
-39 -2 -93 -35 -106 -64 -5 -11 -8 -48 -8 -82 1 -33 -2 -59 -6 -56 -14 8 -9
137 7 198 28 105 81 189 202 316 153 160 209 254 228 382 l7 47 62 0 c55 1 59
2 42 15 -10 8 -39 17 -65 20 -115 16 -259 58 -350 102 -119 58 -187 122 -219
206 -35 93 -30 138 37 347 33 102 69 219 81 260 38 129 93 231 153 286 96 88
293 178 460 210 102 19 318 12 422 -15z m-1130 0 c3 -5 -2 -17 -11 -25 -19
-19 -21 -19 -30 -4 -4 6 -3 8 3 5 6 -4 16 -1 22 7 9 11 9 15 -1 19 -9 4 -9 6
-1 6 6 1 14 -3 18 -8z m1369 -13 c-5 -8 -2 -9 11 -4 15 5 14 2 -5 -17 -26 -24
-38 -27 -24 -5 5 7 9 16 10 21 3 15 4 17 10 17 3 0 2 -5 -2 -12z m-1084 -45
c0 -1 -8 -7 -18 -12 -13 -7 -19 -6 -19 2 0 7 9 13 19 13 10 0 18 -1 18 -3z
m1120 -7 c0 -3 -4 -8 -10 -11 -5 -3 -10 -1 -10 4 0 6 5 11 10 11 6 0 10 -2 10
-4z m340 -11 c14 -8 19 -14 10 -14 -8 0 -24 6 -34 14 -25 19 -9 19 24 0z
m-1430 1 c0 -2 -8 -10 -17 -17 -16 -13 -17 -12 -4 4 13 16 21 21 21 13z m1045
-6 c3 -6 -1 -7 -9 -4 -18 7 -21 14 -7 14 6 0 13 -4 16 -10z m-1091 -18 c3 -5
-1 -9 -9 -9 -8 0 -12 4 -9 9 3 4 7 8 9 8 2 0 6 -4 9 -8z m-366 -43 c-6 -16
-12 -28 -14 -26 -5 5 13 57 20 57 3 0 0 -14 -6 -31z m1937 13 c-3 -3 -11 0
-18 7 -9 10 -8 11 6 5 10 -3 15 -9 12 -12z m-1641 -10 c3 -5 -1 -9 -9 -9 -8 0
-12 4 -9 9 3 4 7 8 9 8 2 0 6 -4 9 -8z m1299 -7 c-3 -9 -8 -14 -10 -11 -3 3
-2 9 2 15 9 16 15 13 8 -4z m402 -15 c-3 -5 -12 -10 -18 -10 -7 0 -6 4 3 10
19 12 23 12 15 0z m50 -30 c3 -6 -1 -7 -9 -4 -18 7 -21 14 -7 14 6 0 13 -4 16
-10z m-448 -35 c0 -8 -4 -12 -9 -9 -5 3 -6 10 -3 15 9 13 12 11 12 -6z m514
-22 c13 -17 13 -17 -6 -3 -11 8 -22 16 -24 17 -2 2 0 3 6 3 6 0 17 -8 24 -17z
m-2151 -18 c0 -8 -4 -15 -10 -15 -5 0 -7 7 -4 15 4 8 8 15 10 15 2 0 4 -7 4
-15z m2167 -37 c-3 -8 -6 -5 -6 6 -1 11 2 17 5 13 3 -3 4 -12 1 -19z m3 -53
c0 -5 -5 -3 -10 5 -5 8 -10 20 -10 25 0 6 5 3 10 -5 5 -8 10 -19 10 -25z
m-2204 -3 c-17 -16 -18 -16 -5 5 7 12 15 20 18 17 3 -2 -3 -12 -13 -22z m2211
-94 c-3 -7 -5 -2 -5 12 0 14 2 19 5 13 2 -7 2 -19 0 -25z m-469 -23 c-3 -3 -9
2 -12 12 -6 14 -5 15 5 6 7 -7 10 -15 7 -18z m-1550 -10 c-3 -3 -9 2 -12 12
-6 14 -5 15 5 6 7 -7 10 -15 7 -18z m-201 -17 c-3 -7 -5 -2 -5 12 0 14 2 19 5
13 2 -7 2 -19 0 -25z m2220 -40 c-3 -7 -5 -2 -5 12 0 14 2 19 5 13 2 -7 2 -19
0 -25z m-26 -1 c-10 -9 -11 -8 -5 6 3 10 9 15 12 12 3 -3 0 -11 -7 -18z
m-2223 -22 c-3 -3 -9 2 -12 12 -6 14 -5 15 5 6 7 -7 10 -15 7 -18z m1802 15
c0 -5 -5 -10 -11 -10 -5 0 -7 5 -4 10 3 6 8 10 11 10 2 0 4 -4 4 -10z m10 -24
c0 -3 -4 -8 -10 -11 -5 -3 -10 -1 -10 4 0 6 5 11 10 11 6 0 10 -2 10 -4z
m-1602 -61 c-3 -3 -9 2 -12 12 -6 14 -5 15 5 6 7 -7 10 -15 7 -18z m-171 -10
c0 -8 -4 -12 -9 -9 -5 3 -6 10 -3 15 9 13 12 11 12 -6z m1825 -47 c-8 -8 -9
-4 -5 13 4 13 8 18 11 10 2 -7 -1 -18 -6 -23z m-1716 -16 c1 -7 0 -8 -3 -2 -8
17 -23 11 -17 -7 5 -15 4 -15 -4 -3 -6 8 -8 18 -5 23 7 11 26 4 29 -11z m-36
-27 c0 -5 -5 -3 -10 5 -5 8 -10 20 -10 25 0 6 5 3 10 -5 5 -8 10 -19 10 -25z
m55 -10 c-3 -31 -11 -40 -20 -26 -3 6 -1 11 5 11 7 0 10 6 7 14 -5 12 0 26 9
26 1 0 1 -11 -1 -25z m1706 -18 c-10 -9 -11 -8 -5 6 3 10 9 15 12 12 3 -3 0
-11 -7 -18z m292 -45 c-7 -17 -13 -10 -19 24 -5 27 -4 28 9 9 8 -10 12 -25 10
-33z m-252 -29 c13 -16 12 -17 -3 -4 -17 13 -22 21 -14 21 2 0 10 -8 17 -17z
m46 -5 c-3 -8 -6 -5 -6 6 -1 11 2 17 5 13 3 -3 4 -12 1 -19z m158 -27 c3 -5 2
-12 -3 -15 -5 -3 -9 1 -9 9 0 17 3 19 12 6z m-155 -26 c11 -13 10 -14 -4 -9
-9 3 -16 10 -16 15 0 13 6 11 20 -6z m-1995 -975 c40 -122 93 -208 194 -312
51 -54 55 -60 52 -103 -1 -24 3 -72 9 -106 7 -37 8 -65 2 -71 -5 -5 -46 -9
-90 -9 -67 0 -92 5 -141 26 -33 15 -69 37 -80 49 l-20 21 45 -3 c54 -5 57 9 7
42 -67 46 -149 162 -172 244 -11 35 2 44 19 13 12 -23 69 -66 77 -58 3 4 -1
23 -10 44 -8 21 -20 73 -27 116 -20 121 12 262 82 360 l23 32 6 -115 c3 -69
13 -137 24 -170z m1657 -466 c-5 -9 -7 -25 -5 -34 3 -10 -3 -20 -13 -24 -14
-5 -15 -4 -4 9 7 9 10 18 7 22 -7 6 10 43 19 43 3 0 1 -7 -4 -16z m-822 -94
c0 -5 -5 -10 -11 -10 -5 0 -7 5 -4 10 3 6 8 10 11 10 2 0 4 -4 4 -10z m33 -27
c-3 -7 -10 -13 -17 -13 -6 0 -3 -5 7 -11 9 -5 17 -15 17 -22 0 -8 -3 -7 -9 2
-5 8 -14 10 -21 6 -9 -5 -11 -4 -6 3 4 7 1 12 -6 12 -8 0 -6 5 5 11 9 6 15 14
13 18 -3 4 1 8 8 8 8 0 12 -6 9 -14z m-483 -8 c0 -12 -19 -12 -23 0 -4 9 -1
12 9 8 7 -3 14 -7 14 -8z m938 -20 c0 -14 -4 -25 -8 -25 -5 0 -7 8 -5 18 2 9
4 20 4 25 2 18 9 4 9 -18z m322 -9 c-7 -7 -13 -7 -20 0 -6 6 -3 10 10 10 13 0
16 -4 10 -10z m30 -16 c0 -5 -5 -10 -11 -10 -5 0 -7 5 -4 10 3 6 8 10 11 10 2
0 4 -4 4 -10z m-772 -25 c-3 -3 -9 2 -12 12 -6 14 -5 15 5 6 7 -7 10 -15 7
-18z m422 3 c0 -4 -4 -8 -9 -8 -6 0 -12 4 -15 8 -3 5 1 9 9 9 8 0 15 -4 15 -9z
m363 -24 c-4 -12 -8 -13 -14 -3 -9 15 -2 32 11 24 5 -3 6 -13 3 -21z m41 -16
c-3 -4 -11 -5 -19 -1 -21 7 -19 12 4 10 11 0 18 -5 15 -9z"/>
<path d="M3050 2925 c0 -19 -11 -43 -30 -65 -38 -44 -70 -128 -69 -183 0 -55
21 -113 39 -109 10 2 11 0 2 -11 -9 -11 -6 -21 12 -45 40 -55 74 -84 88 -76 7
4 10 4 6 -1 -11 -12 26 -35 64 -41 78 -11 181 -3 203 16 8 6 12 23 9 38 -3 21
-2 23 6 12 9 -14 14 -7 11 13 -1 5 3 5 9 2 8 -5 6 -13 -6 -26 -14 -16 -14 -19
-2 -19 23 0 62 61 62 97 0 18 4 33 8 33 10 0 10 36 2 79 -8 40 -79 112 -101
104 -10 -4 -14 -2 -10 4 4 6 -16 21 -47 34 -40 18 -52 28 -48 41 3 14 -2 18
-27 18 -49 0 -99 26 -142 72 l-39 43 0 -30z m20 -75 c0 -5 -2 -10 -4 -10 -3 0
-8 5 -11 10 -3 6 -1 10 4 10 6 0 11 -4 11 -10z m0 -36 c0 -8 -19 -13 -24 -6
-3 5 1 9 9 9 8 0 15 -2 15 -3z m29 -110 c3 -4 -2 -4 -11 -1 -10 4 -19 2 -19
-3 -1 -6 -2 -14 -3 -19 0 -5 -4 -12 -8 -15 -5 -3 -6 -3 -3 1 3 3 -1 13 -8 21
-10 13 -9 14 2 7 11 -6 13 -4 8 8 -4 12 -1 15 15 12 11 -3 23 -7 27 -11z m61
-220 c0 -2 -16 -4 -35 -4 -19 0 -35 4 -35 8 0 4 16 6 35 4 19 -2 35 -6 35 -8z
m-46 -22 c2 -4 -4 -8 -14 -8 -10 0 -16 4 -14 8 3 4 9 8 14 8 5 0 11 -4 14 -8z"/>
<path d="M2480 2879 c-34 -23 -55 -29 -96 -29 -48 0 -75 -12 -60 -27 3 -3 27
-8 53 -10 39 -4 58 1 103 24 38 20 56 36 58 51 4 28 -3 27 -58 -9z"/>
<path d="M2384 2696 c-39 -39 -44 -82 -20 -141 20 -48 56 -64 91 -41 58 38 68
144 19 193 -31 31 -50 29 -90 -11z"/>
<path d="M2645 2541 c-51 -13 -75 -30 -75 -56 0 -28 51 -82 86 -91 27 -7 40
-40 30 -79 -4 -14 -13 -25 -22 -25 -51 0 -154 -90 -154 -135 0 -35 11 -31 54
21 66 78 139 93 235 49 29 -14 68 -41 86 -61 38 -41 63 -39 41 4 -26 49 -79
87 -162 115 -34 11 -37 15 -41 59 -3 44 -2 48 22 54 28 7 85 67 85 90 0 8 -11
26 -25 39 -20 21 -33 25 -77 24 -29 -1 -66 -4 -83 -8z"/>
</g>
</svg>
