<?xml version="1.0" standalone="no"?>
<!DOCTYPE svg PUBLIC "-//W3C//DTD SVG 20010904//EN"
 "http://www.w3.org/TR/2001/REC-SVG-20010904/DTD/svg10.dtd">
<svg version="1.0" xmlns="http://www.w3.org/2000/svg"
 width="612.000000pt" height="408.000000pt" viewBox="0 0 612.000000 408.000000"
 preserveAspectRatio="xMidYMid meet">

<g transform="translate(0.000000,408.000000) scale(0.100000,-0.100000)"
fill="#000000" stroke="none">
<path d="M2130 3466 c-77 -17 -128 -46 -182 -103 -56 -61 -61 -71 -133 -262
-32 -85 -66 -169 -77 -187 -28 -48 -33 -120 -13 -189 13 -46 28 -69 73 -115
31 -31 83 -69 115 -85 44 -21 56 -32 51 -44 -50 -120 -42 -251 20 -350 74
-116 243 -217 429 -255 38 -8 71 -17 74 -20 10 -9 -30 -111 -69 -179 -22 -38
-77 -108 -123 -156 -135 -142 -202 -244 -236 -358 -6 -24 -16 -43 -20 -43 -20
0 -96 107 -144 205 -73 147 -89 211 -83 347 3 81 1 108 -8 108 -17 0 -98 -92
-129 -147 -58 -105 -88 -261 -67 -351 8 -36 8 -41 -3 -32 -8 7 -22 31 -31 56
-33 87 -64 37 -47 -76 15 -95 54 -169 126 -241 l62 -61 -38 7 c-52 10 -49 -13
8 -63 83 -73 237 -116 335 -93 41 10 46 9 60 -12 63 -92 140 -136 284 -162
102 -17 244 -20 298 -5 21 6 42 20 48 30 14 27 23 25 75 -15 58 -44 112 -58
200 -53 107 7 165 44 165 104 0 40 12 43 52 9 41 -34 101 -48 183 -42 88 7
167 33 196 63 42 45 19 120 -45 151 -32 15 -33 18 -24 46 6 17 8 64 5 112 -4
59 -2 96 9 131 21 70 29 236 15 330 -6 43 -23 117 -37 164 -41 136 -61 212
-68 262 l-7 47 58 39 c86 59 177 150 207 210 17 33 29 77 33 118 3 35 7 64 9
64 2 0 18 -9 36 -20 66 -40 124 -23 200 58 73 78 123 184 163 344 71 292 32
406 -174 500 -47 22 -151 71 -230 111 -128 64 -151 72 -200 71 -64 0 -109 -20
-162 -71 l-37 -35 -68 25 c-125 45 -227 61 -379 61 -134 0 -258 -19 -347 -53
-21 -8 -30 -6 -48 14 -36 38 -131 83 -200 94 -78 13 -90 13 -160 -3z m195 -61
c22 -11 47 -20 55 -20 9 0 14 -8 12 -20 -2 -15 -1 -17 7 -6 11 17 46 7 35 -10
-4 -7 -3 -9 4 -5 6 3 13 2 17 -4 3 -5 0 -10 -8 -10 -8 0 -49 -25 -91 -56 -54
-38 -81 -52 -89 -45 -9 7 -12 2 -14 -16 0 -14 -10 -37 -22 -52 -65 -83 -137
-246 -155 -353 -4 -21 -11 -38 -16 -38 -6 0 -10 5 -10 10 0 6 -7 10 -16 10
-13 0 -12 -3 5 -17 15 -13 19 -25 15 -40 -4 -13 -10 -21 -14 -18 -4 2 -6 -8
-4 -23 1 -15 -6 -47 -17 -71 -10 -24 -19 -50 -19 -57 0 -19 -44 -18 -60 1 -7
8 -20 15 -29 15 -25 0 -81 52 -86 79 -2 13 -7 26 -11 30 -4 3 -4 -3 0 -13 6
-16 4 -17 -9 -6 -9 7 -14 19 -11 26 3 8 0 13 -6 11 -7 -1 -12 3 -13 10 0 6 -3
15 -7 19 -15 14 -8 44 10 45 14 0 14 2 2 7 -18 8 -26 67 -10 77 5 3 8 11 4 16
-3 6 3 13 15 16 12 3 21 10 21 17 0 6 5 4 10 -4 5 -8 10 -10 10 -4 0 18 -13
24 -27 13 -13 -12 -19 2 -6 15 7 7 28 60 44 114 6 18 15 30 20 26 6 -3 8 -12
5 -20 -8 -20 -2 -17 20 8 16 18 16 20 2 15 -10 -3 -19 0 -22 9 -8 21 12 56 27
48 9 -5 8 -3 0 7 -16 16 -17 33 -1 23 6 -4 8 -3 5 4 -10 15 3 43 16 35 6 -3 7
-1 3 5 -8 13 22 82 35 82 6 0 5 -9 -1 -21 -7 -11 -9 -23 -6 -27 3 -3 6 0 6 6
0 6 12 22 26 35 23 21 24 25 9 31 -13 4 -16 2 -11 -9 5 -15 -5 -21 -17 -8 -9
9 65 83 76 76 5 -3 17 4 26 16 12 16 29 23 58 24 23 1 39 6 36 11 -10 16 131
0 172 -19z m40 -5 c3 -6 -1 -7 -9 -4 -18 7 -21 14 -7 14 6 0 13 -4 16 -10z
m1222 -22 c15 -6 30 -12 33 -13 20 -4 49 -28 45 -36 -4 -5 1 -9 10 -9 9 0 13
5 9 11 -4 7 1 7 16 -1 13 -7 20 -18 17 -29 -3 -11 2 -17 14 -17 10 0 15 4 13
8 -7 12 26 -2 69 -29 20 -13 37 -21 37 -18 0 3 9 1 20 -5 11 -6 18 -15 15 -20
-3 -5 -1 -11 5 -15 5 -3 10 -2 10 4 0 14 27 7 87 -23 66 -33 106 -80 100 -115
-5 -23 -4 -24 8 -8 12 17 14 15 20 -14 5 -22 4 -34 -4 -37 -6 -2 -11 -11 -11
-20 0 -15 2 -15 10 -2 7 10 10 -10 10 -65 0 -54 -3 -75 -10 -65 -8 13 -11 13
-22 1 -7 -8 -8 -11 -2 -8 23 13 27 -52 5 -88 -6 -11 -8 -18 -10 -41 -1 -10 -7
-14 -15 -11 -10 4 -13 1 -9 -8 3 -8 9 -12 14 -9 12 7 11 2 -6 -37 l-15 -34 2
30 c3 42 -9 59 -28 41 -18 -19 -18 -32 0 -17 12 10 15 4 18 -34 2 -25 -1 -45
-5 -45 -5 0 -6 -4 -2 -9 3 -5 0 -15 -7 -23 -7 -7 -14 -20 -16 -27 -4 -19 -63
-101 -73 -101 -4 0 -10 -8 -13 -18 -7 -20 -65 -52 -95 -52 -46 0 -142 130
-176 239 -6 21 -5 23 11 17 15 -6 14 -2 -5 18 -14 15 -21 26 -17 26 4 0 2 9
-4 20 -8 16 -6 26 9 47 10 16 22 42 25 58 5 29 5 29 -5 5 -26 -58 -33 -70 -42
-70 -5 0 -7 9 -4 20 3 11 1 20 -4 20 -5 0 -9 7 -9 16 0 8 4 13 9 9 5 -3 13 -1
16 5 4 6 1 9 -5 8 -19 -4 -52 143 -37 161 10 12 9 14 -5 8 -14 -5 -17 -1 -16
18 2 16 6 21 13 15 8 -7 11 -3 10 13 -1 12 -12 27 -24 33 -14 7 -19 14 -12 18
6 4 15 5 19 2 4 -2 9 5 9 17 2 17 0 19 -7 7 -9 -14 -15 -6 -10 15 1 5 -2 7 -5
3 -8 -8 -85 68 -85 83 0 21 2 24 15 21 7 -1 16 2 20 8 3 5 3 10 -2 11 -108 10
-124 3 -90 -37 62 -74 97 -176 147 -434 36 -184 52 -239 92 -305 28 -46 30
-54 26 -130 -4 -61 -11 -92 -31 -131 -34 -67 -144 -168 -252 -230 -46 -27 -84
-55 -85 -61 0 -15 10 -16 43 -4 24 9 25 8 37 -52 6 -34 27 -110 46 -169 55
-175 67 -256 61 -387 -6 -130 -33 -244 -91 -381 -20 -46 -36 -88 -36 -92 0 -4
24 -7 53 -6 85 2 152 -46 128 -91 -15 -27 -39 -33 -46 -12 -7 22 -53 67 -60
59 -3 -3 4 -22 16 -43 18 -31 20 -38 8 -46 -29 -18 -57 -9 -79 26 -12 19 -25
35 -29 35 -17 0 -20 -14 -8 -29 8 -9 17 -25 21 -35 6 -17 2 -18 -48 -12 -111
13 -137 43 -144 171 -4 78 -2 83 41 175 62 134 118 334 101 362 -11 17 -21 -5
-54 -116 -48 -165 -95 -267 -201 -434 -8 -14 -22 -22 -34 -20 -26 4 -32 65
-34 326 -1 176 -8 221 -26 175 -12 -32 -18 -256 -10 -405 l7 -148 37 0 c79 -1
132 -97 71 -130 -15 -8 -20 -6 -25 9 -9 28 -45 72 -55 66 -4 -2 1 -23 12 -45
11 -23 18 -44 14 -47 -12 -12 -103 -15 -143 -4 -80 22 -126 81 -171 221 -39
120 -62 234 -79 382 -13 111 -20 148 -30 148 -12 0 -14 -20 -11 -100 2 -55 0
-100 -4 -100 -5 0 -8 4 -8 10 0 21 -77 94 -119 113 -51 22 -133 26 -156 7 -25
-21 -18 -26 38 -26 122 -1 225 -113 243 -264 5 -48 2 -62 -23 -109 -24 -46
-35 -57 -73 -70 -88 -31 -124 -77 -41 -53 84 26 188 6 212 -40 6 -10 9 -33 7
-50 -2 -25 -9 -33 -31 -39 -24 -6 -29 -3 -43 24 -18 36 -53 77 -66 77 -4 0 -8
-7 -8 -15 0 -8 4 -15 10 -15 10 0 40 -52 40 -70 0 -27 -249 2 -338 40 -133 57
-199 235 -158 423 29 131 85 222 241 392 44 48 88 99 98 114 30 43 73 133 91
189 l18 52 44 0 c44 0 59 14 27 24 -10 3 -61 14 -113 25 -337 69 -532 235
-517 442 3 52 14 88 50 165 28 59 63 161 87 254 68 255 150 395 286 485 211
141 578 171 840 69 38 -14 77 -27 87 -28 9 -1 38 17 64 41 26 24 53 41 60 39
7 -3 13 0 13 6 0 6 6 5 17 -3 15 -12 16 -12 10 4 -5 14 0 17 33 17 21 0 51 -5
67 -12z m-31 -295 c-4 -4 -11 -1 -16 7 -16 25 -11 35 7 17 9 -9 13 -20 9 -24z
m29 -43 c3 -5 -1 -10 -10 -10 -9 0 -13 5 -10 10 3 6 8 10 10 10 2 0 7 -4 10
-10z m-1782 -1615 c44 -128 106 -234 182 -315 l43 -45 5 -95 c3 -52 8 -105 12
-117 6 -19 2 -25 -21 -34 -49 -19 -166 -5 -239 30 -36 16 -65 33 -65 37 0 3
24 3 53 0 38 -5 57 -3 72 8 20 15 20 15 0 21 -132 46 -259 183 -281 305 l-7
35 30 -40 c30 -41 78 -74 90 -62 3 4 -2 37 -13 74 -42 151 -13 316 75 433 l26
35 7 -100 c4 -66 15 -124 31 -170z m1667 -535 c-18 -33 -24 -16 -9 27 11 31
14 34 17 16 2 -12 -2 -32 -8 -43z m-780 -106 c0 -1 -17 7 -37 17 -21 10 -43
19 -50 19 -17 0 -17 -2 14 66 l26 58 23 -80 c13 -43 24 -80 24 -80z m459 -23
l1 -24 -24 22 c-24 23 -24 24 -8 49 l16 25 7 -24 c4 -13 7 -35 8 -48z"/>
<path d="M2210 3406 c0 -2 7 -6 15 -10 8 -3 15 -1 15 4 0 6 -7 10 -15 10 -8 0
-15 -2 -15 -4z"/>
<path d="M2075 3391 c3 -2 -1 -11 -7 -20 -8 -10 -3 -8 12 4 14 11 27 21 29 22
2 1 -6 1 -17 0 -12 0 -19 -3 -17 -6z"/>
<path d="M2125 3390 c-3 -6 1 -7 9 -4 18 7 21 14 7 14 -6 0 -13 -4 -16 -10z"/>
<path d="M2288 3393 c7 -3 16 -2 19 1 4 3 -2 6 -13 5 -11 0 -14 -3 -6 -6z"/>
<path d="M2313 3373 c10 -2 17 -10 16 -16 -4 -32 1 -40 16 -27 14 12 14 15 -1
31 -10 11 -24 18 -33 18 -13 -1 -12 -2 2 -6z"/>
<path d="M2370 3316 c7 -7 13 -7 20 0 6 6 3 10 -10 10 -13 0 -16 -4 -10 -10z"/>
<path d="M2343 3304 c10 -10 -36 -42 -52 -36 -9 3 -12 1 -7 -6 4 -7 2 -12 -4
-12 -6 0 -8 -4 -5 -10 3 -6 18 1 33 15 15 14 35 28 45 31 18 6 14 24 -5 24 -6
0 -9 -3 -5 -6z"/>
<path d="M2250 3269 c0 -5 5 -7 10 -4 6 3 10 8 10 11 0 2 -4 4 -10 4 -5 0 -10
-5 -10 -11z"/>
<path d="M1930 3221 c0 -9 30 -24 36 -18 2 1 -6 8 -16 15 -11 7 -20 8 -20 3z"/>
<path d="M2185 3190 c-3 -6 0 -17 9 -25 9 -9 17 -11 21 -5 3 5 1 10 -5 10 -7
0 -10 7 -6 15 6 17 -9 21 -19 5z"/>
<path d="M2161 3164 c0 -11 3 -14 6 -6 3 7 2 16 -1 19 -3 4 -6 -2 -5 -13z"/>
<path d="M1906 3115 c-9 -26 -7 -32 5 -12 6 10 9 21 6 23 -2 3 -7 -2 -11 -11z"/>
<path d="M2171 3116 c-9 -11 -9 -16 1 -22 7 -4 10 -4 6 1 -4 4 -3 14 3 22 6 7
9 13 6 13 -2 0 -10 -6 -16 -14z"/>
<path d="M1875 3109 c-4 -6 -5 -12 -2 -15 2 -3 7 2 10 11 7 17 1 20 -8 4z"/>
<path d="M2096 3033 c6 -4 14 -15 17 -23 5 -11 6 -9 4 4 -1 11 -9 21 -17 23
-10 3 -11 2 -4 -4z"/>
<path d="M2088 2972 c-2 -17 1 -29 7 -29 6 0 9 12 7 29 -2 15 -5 28 -7 28 -2
0 -5 -13 -7 -28z"/>
<path d="M1775 2840 c-3 -5 -1 -10 4 -10 6 0 11 5 11 10 0 6 -2 10 -4 10 -3 0
-8 -4 -11 -10z"/>
<path d="M1770 2761 c0 -6 4 -11 9 -11 5 0 12 -8 14 -17 4 -15 5 -15 6 -2 0 9
-6 22 -14 29 -10 9 -15 9 -15 1z"/>
<path d="M1817 2726 c-3 -8 -2 -18 3 -21 13 -8 20 9 11 24 -6 10 -10 9 -14 -3z"/>
<path d="M1850 2629 c0 -5 5 -7 10 -4 6 3 10 8 10 11 0 2 -4 4 -10 4 -5 0 -10
-5 -10 -11z"/>
<path d="M1881 2626 c-9 -10 -8 -16 4 -26 10 -9 15 -9 15 -1 0 6 -5 11 -11 11
-8 0 -8 5 1 15 7 8 10 15 7 15 -2 0 -10 -6 -16 -14z"/>
<path d="M2005 2630 c-4 -6 -10 -8 -15 -5 -5 3 -11 1 -15 -5 -3 -5 3 -10 13
-10 11 0 22 7 26 15 6 17 0 20 -9 5z"/>
<path d="M1957 2579 c4 -13 8 -18 11 -10 2 7 -1 18 -6 23 -8 8 -9 4 -5 -13z"/>
<path d="M3500 3371 c0 -4 14 -7 32 -5 45 6 48 14 5 14 -20 0 -37 -4 -37 -9z"/>
<path d="M3620 3346 c0 -2 8 -10 18 -17 15 -13 16 -12 3 4 -13 16 -21 21 -21
13z"/>
<path d="M3393 3309 c-4 -12 -11 -18 -20 -15 -8 3 -11 1 -8 -4 3 -5 19 -7 35
-3 20 3 30 1 30 -6 0 -7 -4 -10 -9 -6 -5 3 -12 1 -16 -5 -4 -6 -10 -8 -14 -6
-4 3 -8 -1 -8 -9 0 -11 4 -12 14 -4 7 6 13 8 13 4 0 -4 7 -2 15 5 8 6 19 9 24
6 5 -4 13 -1 17 5 4 7 3 9 -3 6 -6 -4 -16 0 -23 8 -7 8 -9 15 -5 15 4 0 2 7
-5 15 -17 21 -31 19 -37 -6z m32 1 c3 -5 -1 -10 -9 -10 -9 0 -16 5 -16 10 0 6
4 10 9 10 6 0 13 -4 16 -10z"/>
<path d="M3648 3303 c6 -2 18 -2 25 0 6 3 1 5 -13 5 -14 0 -19 -2 -12 -5z"/>
<path d="M3780 3250 c-12 -7 -11 -10 5 -16 11 -4 25 -9 30 -11 6 -3 2 2 -8 10
-14 11 -15 16 -5 20 7 3 9 6 3 6 -5 0 -17 -3 -25 -9z"/>
<path d="M3774 3216 c11 -9 24 -16 30 -16 12 0 7 5 -24 19 -24 11 -24 11 -6
-3z"/>
<path d="M3840 3226 c0 -2 8 -10 18 -17 15 -13 16 -12 3 4 -13 16 -21 21 -21
13z"/>
<path d="M3490 3205 c8 -11 15 -21 16 -23 1 -2 5 5 8 15 4 9 4 14 0 10 -4 -4
-14 -1 -23 6 -14 11 -15 10 -1 -8z"/>
<path d="M3965 3170 c11 -5 27 -9 35 -9 9 0 8 4 -5 9 -11 5 -27 9 -35 9 -9 0
-8 -4 5 -9z"/>
<path d="M3935 3150 c3 -5 8 -10 11 -10 2 0 4 5 4 10 0 6 -5 10 -11 10 -5 0
-7 -4 -4 -10z"/>
<path d="M3973 3143 c9 -2 25 -2 35 0 9 3 1 5 -18 5 -19 0 -27 -2 -17 -5z"/>
<path d="M3058 3029 c-25 -14 -22 -28 9 -40 20 -7 28 -7 34 3 7 10 11 10 21
-1 11 -12 10 -12 -2 -6 -13 8 -13 7 -1 -8 16 -20 22 -22 19 -6 -2 6 3 14 10
16 6 3 12 -3 13 -14 0 -10 3 -12 6 -6 3 9 11 8 29 -4 19 -12 22 -18 12 -25 -8
-6 -5 -7 11 -3 16 5 21 4 17 -4 -5 -7 -1 -9 8 -5 16 6 23 -10 9 -19 -5 -2 -3
-3 3 -1 6 1 18 -3 25 -9 11 -10 11 -9 0 5 -7 9 -10 21 -7 27 9 14 -42 69 -85
91 -41 22 -103 26 -131 9z"/>
<path d="M2363 2999 c-23 -11 -44 -27 -47 -35 -7 -18 8 -18 46 2 21 11 47 15
80 12 51 -5 67 11 29 32 -30 15 -62 12 -108 -11z"/>
<path d="M3034 2981 c20 -22 26 -25 26 -13 0 4 -10 13 -22 21 -23 14 -23 14
-4 -8z"/>
<path d="M3299 2918 c7 -10 10 -18 5 -18 -5 0 -2 -6 7 -13 8 -7 18 -21 22 -31
4 -10 10 -16 13 -13 8 8 -21 61 -43 78 -16 13 -17 13 -4 -3z"/>
<path d="M3215 2913 c3 -3 0 -11 -5 -18 -7 -8 -5 -12 4 -12 14 0 16 22 3 32
-4 3 -5 2 -2 -2z"/>
<path d="M2921 2884 c0 -11 3 -14 6 -6 3 7 2 16 -1 19 -3 4 -6 -2 -5 -13z"/>
<path d="M2945 2891 c-3 -5 -2 -12 3 -15 5 -3 9 1 9 9 0 17 -3 19 -12 6z"/>
<path d="M3671 2854 c0 -11 3 -14 6 -6 3 7 2 16 -1 19 -3 4 -6 -2 -5 -13z"/>
<path d="M2936 2851 c-3 -5 1 -11 9 -14 9 -4 12 -1 8 9 -6 16 -10 17 -17 5z"/>
<path d="M2901 2845 c1 -19 18 -51 18 -35 0 8 -4 22 -9 30 -5 8 -9 11 -9 5z"/>
<path d="M3620 2834 c0 -8 5 -12 10 -9 6 3 10 10 10 16 0 5 -4 9 -10 9 -5 0
-10 -7 -10 -16z"/>
<path d="M4085 2830 c-3 -5 -1 -10 4 -10 6 0 11 5 11 10 0 6 -2 10 -4 10 -3 0
-8 -4 -11 -10z"/>
<path d="M2930 2810 c0 -5 5 -10 10 -10 6 0 10 5 10 10 0 6 -4 10 -10 10 -5 0
-10 -4 -10 -10z"/>
<path d="M3103 2794 c-8 -4 -6 -11 8 -25 24 -24 38 -25 16 -1 -10 10 -14 22
-10 25 7 8 4 8 -14 1z"/>
<path d="M2880 2770 c0 -5 5 -10 10 -10 6 0 10 5 10 10 0 6 -4 10 -10 10 -5 0
-10 -4 -10 -10z"/>
<path d="M3059 2772 c11 -8 11 -11 0 -16 -8 -3 -3 -3 11 0 19 4 16 0 -15 -19
-22 -14 -44 -23 -50 -19 -5 3 -4 -1 3 -10 13 -16 6 -52 -8 -43 -5 3 -6 -4 -3
-15 3 -11 0 -20 -6 -20 -11 0 -13 6 -15 44 -1 11 -8 21 -16 23 -9 3 -11 1 -4
-4 13 -10 13 -53 0 -53 -5 0 -6 -3 -2 -7 4 -5 13 -8 19 -8 7 0 13 -10 15 -22
3 -18 -2 -23 -17 -23 -14 0 -21 -6 -20 -17 0 -11 3 -13 6 -5 7 17 23 15 45 -5
18 -16 19 -15 34 5 14 20 42 33 30 14 -3 -5 8 -8 24 -8 16 0 27 3 24 8 -3 5
-9 6 -14 3 -5 -3 -12 4 -15 16 -6 17 -9 19 -16 8 -15 -24 -10 0 7 32 8 17 18
28 21 25 3 -3 2 -11 -3 -19 -5 -7 -2 -5 7 5 20 21 29 13 58 -55 11 -26 26 -47
33 -47 7 0 23 -3 36 -6 17 -5 22 -2 22 14 0 11 -7 27 -15 35 -8 9 -16 35 -17
60 -2 25 -6 43 -9 41 -3 -2 -12 8 -19 21 -7 14 -17 25 -22 25 -5 0 -6 5 -2 11
4 8 -1 9 -15 4 -14 -4 -29 -1 -39 8 -9 8 -28 18 -42 21 -17 5 -21 4 -11 -2z
m181 -217 c0 -8 -4 -15 -10 -15 -5 0 -7 7 -4 15 4 8 8 15 10 15 2 0 4 -7 4
-15z"/>
<path d="M3385 2759 c-4 -6 -5 -12 -2 -15 2 -3 7 2 10 11 7 17 1 20 -8 4z"/>
<path d="M2310 2720 c-31 -33 -65 -122 -56 -145 11 -29 35 -14 63 38 33 61 60
69 82 22 22 -49 42 -67 58 -54 24 21 7 115 -28 150 -30 30 -85 25 -119 -11z"/>
<path d="M3256 2690 c8 -43 14 -51 14 -19 0 13 -5 31 -10 39 -7 11 -8 5 -4
-20z"/>
<path d="M3391 2703 c0 -6 -4 -20 -7 -30 -5 -14 -4 -15 5 -7 7 7 11 20 8 30
-3 11 -5 14 -6 7z"/>
<path d="M2880 2674 c0 -8 5 -12 10 -9 6 3 10 10 10 16 0 5 -4 9 -10 9 -5 0
-10 -7 -10 -16z"/>
<path d="M4016 2643 c-6 -14 -5 -15 5 -6 7 7 10 15 7 18 -3 3 -9 -2 -12 -12z"/>
<path d="M2926 2616 c-4 -16 -5 -31 -1 -34 3 -3 5 3 5 14 0 16 2 17 10 4 11
-18 12 -3 1 25 -7 17 -9 16 -15 -9z"/>
<path d="M3235 2629 c-11 -16 -1 -19 13 -3 7 8 8 14 3 14 -5 0 -13 -5 -16 -11z"/>
<path d="M3371 2625 c0 -5 8 -26 19 -45 11 -19 19 -30 19 -25 0 6 -8 26 -19
45 -11 19 -19 31 -19 25z"/>
<path d="M3097 2613 c-11 -11 -8 -20 7 -20 8 0 12 6 9 14 -6 15 -7 15 -16 6z"/>
<path d="M4007 2606 c-4 -10 -1 -13 8 -9 8 3 12 9 9 14 -7 12 -11 11 -17 -5z"/>
<path d="M3250 2600 c0 -5 5 -10 11 -10 5 0 7 5 4 10 -3 6 -8 10 -11 10 -2 0
-4 -4 -4 -10z"/>
<path d="M3360 2581 c0 -6 4 -13 10 -16 6 -3 7 1 4 9 -7 18 -14 21 -14 7z"/>
<path d="M2581 2570 c-62 -7 -91 -33 -91 -85 0 -44 29 -78 90 -104 51 -22 59
-36 39 -73 -15 -27 -85 -58 -136 -58 -36 0 -46 5 -65 30 -26 35 -38 38 -38 9
0 -44 49 -89 98 -89 14 0 22 -12 32 -42 20 -69 45 -111 93 -155 138 -128 317
-42 382 182 10 33 25 70 33 83 11 17 12 26 4 34 -8 8 -21 2 -48 -22 l-38 -33
-90 5 c-106 6 -162 26 -176 62 -13 36 -4 53 37 67 19 6 50 26 69 45 27 28 34
43 34 73 0 23 -6 44 -16 51 -18 16 -139 27 -213 20z"/>
<path d="M2926 2553 c-6 -14 -5 -15 5 -6 7 7 10 15 7 18 -3 3 -9 -2 -12 -12z"/>
<path d="M2966 2544 c-8 -21 -8 -21 8 -21 8 0 11 8 8 19 -5 22 -8 23 -16 2z"/>
<path d="M3695 2549 c-4 -6 -5 -12 -2 -15 2 -3 7 2 10 11 7 17 1 20 -8 4z"/>
<path d="M2936 2531 c-3 -5 1 -14 8 -20 12 -10 13 -8 9 8 -6 23 -9 25 -17 12z"/>
<path d="M3150 2520 c-11 -7 -11 -10 -2 -10 7 0 10 -4 7 -10 -3 -5 -1 -10 5
-10 7 0 10 6 7 14 -3 8 -1 17 6 20 7 2 8 5 2 5 -5 0 -17 -4 -25 -9z"/>
<path d="M3740 2521 c0 -6 4 -13 10 -16 6 -3 7 1 4 9 -7 18 -14 21 -14 7z"/>
<path d="M3941 2514 c0 -11 3 -14 6 -6 3 7 2 16 -1 19 -3 4 -6 -2 -5 -13z"/>
<path d="M3366 2503 c-6 -14 -5 -15 5 -6 7 7 10 15 7 18 -3 3 -9 -2 -12 -12z"/>
<path d="M3720 2503 c0 -6 6 -16 14 -23 8 -6 13 -17 10 -25 -3 -7 -1 -15 4
-19 16 -10 9 29 -10 53 -10 13 -18 19 -18 14z"/>
<path d="M3017 2486 c-4 -9 -2 -18 3 -21 6 -4 10 -2 10 3 0 6 10 8 23 6 12 -2
15 -1 7 2 -8 4 -20 11 -26 16 -8 5 -14 3 -17 -6z"/>
<path d="M3931 2467 c-8 -10 -7 -14 2 -14 8 0 14 6 14 14 0 7 -1 13 -2 13 -2
0 -8 -6 -14 -13z"/>
<path d="M3310 2466 c0 -2 7 -7 16 -10 8 -3 12 -2 9 4 -6 10 -25 14 -25 6z"/>
<path d="M3771 2454 c0 -11 3 -14 6 -6 3 7 2 16 -1 19 -3 4 -6 -2 -5 -13z"/>
<path d="M3825 2460 c3 -5 8 -10 11 -10 2 0 4 5 4 10 0 6 -5 10 -11 10 -5 0
-7 -4 -4 -10z"/>
<path d="M3000 2451 c0 -5 7 -12 16 -15 14 -5 15 -4 4 9 -14 17 -20 19 -20 6z"/>
<path d="M3050 2426 c0 -2 8 -10 18 -17 15 -13 16 -12 3 4 -13 16 -21 21 -21
13z"/>
<path d="M3816 2388 c3 -4 11 -5 19 -1 21 7 19 12 -4 10 -11 0 -18 -5 -15 -9z"/>
</g>
</svg>
