<?xml version="1.0" standalone="no"?>
<!DOCTYPE svg PUBLIC "-//W3C//DTD SVG 20010904//EN"
 "http://www.w3.org/TR/2001/REC-SVG-20010904/DTD/svg10.dtd">
<svg version="1.0" xmlns="http://www.w3.org/2000/svg"
 width="612.000000pt" height="408.000000pt" viewBox="0 0 612.000000 408.000000"
 preserveAspectRatio="xMidYMid meet">

<g transform="translate(0.000000,408.000000) scale(0.100000,-0.100000)"
fill="#000000" stroke="none">
<path d="M2233 3460 c-134 -20 -212 -104 -269 -290 -20 -63 -54 -155 -76 -205
-58 -128 -57 -162 7 -256 28 -41 70 -95 95 -121 l45 -47 0 -123 c0 -110 3
-128 24 -173 34 -69 132 -162 216 -206 67 -35 194 -80 263 -94 18 -4 35 -12
38 -19 8 -21 -44 -168 -81 -231 -20 -33 -80 -105 -134 -160 -150 -154 -213
-243 -242 -342 -15 -53 -18 -51 -97 65 -78 114 -109 178 -133 270 -23 90 -24
153 -4 247 9 41 11 73 6 78 -13 13 -90 -62 -129 -126 -56 -92 -82 -180 -82
-277 0 -47 4 -100 10 -118 8 -29 7 -32 -5 -22 -8 6 -26 32 -40 56 -45 77 -58
46 -30 -74 21 -88 61 -166 118 -229 48 -52 48 -52 17 -42 -40 14 -47 6 -25
-28 56 -89 133 -133 244 -140 42 -3 95 0 118 5 l42 10 26 -44 c80 -136 204
-188 452 -189 118 0 134 2 160 21 15 12 29 31 31 43 5 29 19 26 36 -6 31 -60
103 -103 173 -103 52 0 149 29 168 50 9 10 17 32 17 49 1 35 5 37 29 15 61
-55 228 -58 300 -5 16 12 39 21 52 21 36 0 58 22 59 58 1 41 -27 82 -74 105
l-36 18 19 55 c11 30 22 92 24 137 3 45 9 100 15 122 25 105 6 275 -53 460
-41 130 -53 206 -39 261 6 21 13 51 16 66 5 20 28 41 92 83 47 31 108 79 135
107 44 46 99 139 99 167 0 16 15 13 55 -10 77 -46 146 2 220 154 63 131 97
265 99 397 1 97 -1 110 -27 162 -30 62 -82 110 -157 148 -24 13 -81 45 -125
73 -231 145 -332 159 -477 65 l-60 -39 -47 15 c-154 51 -363 61 -546 26 l-106
-21 -49 44 c-79 71 -240 108 -377 87z m1429 -109 c13 -5 26 -9 31 -10 18 -2
67 -33 63 -39 -2 -4 6 -8 17 -8 12 -1 45 -17 73 -35 28 -19 66 -42 83 -51 18
-10 30 -22 26 -28 -3 -5 0 -7 8 -4 24 9 132 -60 121 -78 -3 -4 0 -7 7 -6 7 2
25 -19 41 -47 24 -44 27 -60 27 -137 -1 -49 -5 -91 -10 -94 -5 -3 -7 -10 -3
-15 8 -13 -16 -109 -27 -109 -5 0 -7 -11 -3 -25 6 -24 -2 -31 -29 -26 -5 1 -6
-3 -2 -9 3 -6 11 -8 16 -4 10 6 -8 -39 -49 -124 -32 -68 -84 -122 -116 -122
-28 0 -92 53 -82 68 3 6 1 14 -5 18 -8 5 -10 2 -5 -7 4 -8 -2 -3 -13 11 -11
14 -19 31 -16 38 3 7 1 11 -4 8 -11 -7 -23 22 -14 36 3 6 2 8 -4 5 -10 -6 -63
105 -63 131 0 7 -7 27 -16 44 -8 16 -17 40 -18 52 -2 11 -6 28 -9 36 -23 63
-38 123 -33 136 3 8 2 13 -2 10 -8 -5 -37 60 -30 67 2 1 -12 21 -29 44 -36 45
-43 63 -15 42 15 -12 16 -12 5 2 -7 9 -11 19 -8 23 3 3 0 2 -7 -4 -8 -6 -16
-6 -25 2 -11 9 -11 14 -1 27 11 14 11 14 -2 4 -12 -9 -23 -6 -54 17 -30 23
-43 27 -57 19 -20 -10 -26 -29 -10 -29 22 0 110 -94 138 -147 17 -32 48 -114
67 -183 51 -175 72 -231 128 -342 l50 -98 -17 -50 c-36 -107 -114 -184 -299
-295 -55 -33 -102 -66 -104 -72 -5 -16 32 -17 60 -2 19 10 19 9 11 -23 -19
-75 -8 -168 35 -308 53 -173 66 -252 59 -359 -6 -99 -29 -164 -118 -338 -31
-61 -55 -114 -51 -117 3 -3 17 -6 31 -6 38 0 89 -35 97 -66 6 -21 2 -31 -16
-46 -30 -25 -50 -23 -50 5 0 26 -17 47 -37 47 -10 0 -11 -5 -3 -19 5 -11 10
-30 10 -42 0 -21 -3 -21 -60 -16 -114 10 -138 45 -122 177 8 60 21 107 45 160
19 41 46 116 61 165 27 97 52 264 43 290 -12 29 -26 15 -32 -32 -23 -165 -95
-392 -160 -508 -42 -75 -102 -148 -116 -139 -13 8 -11 277 3 425 11 124 7 172
-12 153 -27 -27 -58 -424 -43 -544 8 -62 9 -64 40 -71 43 -9 81 -35 95 -64 9
-20 8 -29 -7 -45 -18 -19 -18 -19 -34 12 -17 34 -49 54 -38 23 23 -59 22 -63
-28 -71 -101 -15 -151 23 -216 161 -76 164 -121 327 -139 504 -5 58 -12 106
-14 109 -16 15 -26 -19 -26 -86 l0 -76 -32 31 c-67 65 -169 90 -242 59 -65
-27 -56 -40 25 -32 69 6 79 4 129 -21 133 -68 187 -242 112 -361 -30 -48 -59
-68 -112 -77 -42 -6 -67 -21 -57 -32 5 -4 57 -8 117 -8 102 0 110 -2 135 -25
53 -50 55 -81 4 -99 -26 -9 -29 -8 -29 10 0 32 -19 59 -41 59 -19 0 -19 -1 -5
-22 32 -46 22 -58 -46 -58 -83 0 -232 27 -288 51 -108 48 -170 154 -178 304
-6 116 11 176 78 280 28 43 102 130 164 195 146 152 196 236 230 393 l7 28 67
-6 c67 -6 101 3 88 24 -4 6 -19 11 -33 11 -38 0 -220 38 -293 62 -121 39 -211
89 -276 154 -110 109 -131 226 -73 392 17 48 44 132 60 187 53 176 81 245 118
294 179 238 636 356 989 255 46 -13 51 -17 43 -33 -6 -10 -7 -21 -4 -25 11
-10 65 -7 58 4 -3 6 1 13 10 17 10 3 29 17 44 31 37 35 63 51 89 55 12 2 25 6
28 10 10 10 98 9 126 -2z m-1829 -1663 c-9 -154 51 -315 186 -494 l68 -92 6
-83 c3 -46 8 -91 12 -100 8 -22 -20 -29 -115 -29 -78 0 -159 27 -189 63 -12
15 -10 16 20 11 19 -3 40 -7 47 -10 16 -5 42 6 42 17 0 5 -17 17 -38 28 -69
35 -139 108 -177 183 -45 91 -45 107 -2 74 32 -25 57 -33 57 -20 0 3 -10 38
-21 76 -37 121 -11 266 72 403 18 30 34 55 35 55 1 0 0 -37 -3 -82z m1681
-685 c-4 -16 -12 -37 -17 -48 -6 -11 -10 -25 -9 -31 1 -7 -6 -14 -16 -16 -16
-5 -14 3 12 58 17 35 32 64 34 64 1 0 -1 -12 -4 -27z m-760 -154 l12 -35 -52
25 c-45 23 -51 28 -39 41 8 8 19 29 25 45 l12 30 15 -35 c8 -19 20 -51 27 -71z
m793 -9 c32 -19 51 -59 38 -79 -10 -18 -22 -12 -29 13 -3 14 -18 38 -32 55
-30 36 -23 39 23 11z m-370 -56 c-2 -3 -12 -2 -21 2 -19 7 -16 31 3 26 7 -1
10 2 6 8 -3 5 -3 16 2 23 5 8 9 0 11 -21 2 -19 1 -36 -1 -38z"/>
<path d="M3723 3305 c0 -8 4 -12 9 -9 5 3 6 10 3 15 -9 13 -12 11 -12 -6z"/>
<path d="M3456 3298 c3 -5 10 -6 15 -3 13 9 11 12 -6 12 -8 0 -12 -4 -9 -9z"/>
<path d="M3800 3256 c0 -2 7 -7 16 -10 8 -3 12 -2 9 4 -6 10 -25 14 -25 6z"/>
<path d="M3563 3175 c0 -8 4 -12 9 -9 5 3 6 10 3 15 -9 13 -12 11 -12 -6z"/>
<path d="M3115 2999 c-56 -29 -88 -62 -120 -121 -37 -67 -45 -168 -20 -234 24
-62 110 -145 193 -186 61 -30 75 -33 162 -33 77 0 101 4 125 19 85 55 118 112
118 201 0 81 -44 168 -128 252 -112 112 -237 151 -330 102z"/>
<path d="M4136 2997 c3 -10 9 -15 12 -12 3 3 0 11 -7 18 -10 9 -11 8 -5 -6z"/>
<path d="M2381 2754 c-31 -39 -29 -107 4 -139 13 -14 30 -25 37 -25 43 0 86
75 73 128 -16 65 -77 83 -114 36z"/>
<path d="M3741 2714 c0 -11 3 -14 6 -6 3 7 2 16 -1 19 -3 4 -6 -2 -5 -13z"/>
<path d="M4095 2719 c-4 -6 -4 -13 -1 -16 3 -4 6 -1 6 6 0 7 5 9 12 5 7 -4 8
-3 4 4 -9 15 -13 15 -21 1z"/>
<path d="M2583 2635 c-73 -31 -64 -104 21 -167 56 -41 60 -70 14 -98 -51 -31
-96 -36 -135 -15 -55 30 -60 -11 -4 -42 28 -17 28 -19 27 -98 -1 -88 11 -120
60 -152 37 -24 117 -22 152 4 37 27 68 85 81 152 l11 56 62 15 c57 14 92 40
75 56 -3 4 -27 1 -52 -6 -91 -25 -205 11 -205 65 0 19 10 28 43 43 89 40 136
124 90 164 -45 38 -177 51 -240 23z m52 -332 c-4 -10 -10 -45 -13 -77 -6 -78
11 -67 38 25 14 45 26 69 33 66 65 -28 66 -30 60 -77 -16 -129 -104 -190 -174
-121 -25 25 -29 37 -28 83 1 69 9 88 45 103 40 18 47 18 39 -2z"/>
<path d="M4040 2519 c0 -5 5 -7 10 -4 6 3 10 8 10 11 0 2 -4 4 -10 4 -5 0 -10
-5 -10 -11z"/>
</g>
</svg>
