<?xml version="1.0" encoding="utf-8"?>
<!-- Generator: Adobe Illustrator 27.5.0, SVG Export Plug-In . SVG Version: 6.00 Build 0)  -->
<svg version="1.1" xmlns="http://www.w3.org/2000/svg" xmlns:xlink="http://www.w3.org/1999/xlink" x="0px" y="0px"
	 viewBox="0 0 3710 3710" style="enable-background:new 0 0 3710 3710;" xml:space="preserve">
<g id="Background">
	<g>
		<g>
			<rect style="fill:#FFFFFF;" width="3710" height="3710"/>
		</g>
	</g>
</g>
<g id="Illustration">
	<g>
		<linearGradient id="SVGID_1_" gradientUnits="userSpaceOnUse" x1="3387.2083" y1="3577.2036" x2="1356.8248" y2="1385.6786">
			<stop  offset="0" style="stop-color:#DAE3FE"/>
			<stop  offset="1" style="stop-color:#E9EFFD"/>
		</linearGradient>
		<path style="fill:url(#SVGID_1_);" d="M3104.261,2328.336c-278.99,652.105-1015.432,932.2-1592.445,884.443
			c-157.548-13.039-474.539-39.276-722.048-273.336c-475.324-449.499-402.12-1389.077,52.902-1942.249
			c58.597-71.237,464.199-548.518,1096.254-542.13c462.756,4.678,787.56,266.082,827.055,298.648
			c49.893,41.14,159.936,138.901,259.111,293.992C3258.118,1412.115,3278.601,1920.835,3104.261,2328.336z"/>
		<g>
			<g>
				<path style="fill:#91B3FA;" d="M644.24,476.473c-32.507,225.657-168.048,1546.57,1048.63,1896.41
					c0,0,313.091-846.636-1017.537-1908.785C663.692,454.806,646.363,461.731,644.24,476.473z"/>
				<path style="fill:#FFFFFF;" d="M753.274,677.741c7.772,37.657,16.605,74.967,25.787,112.235
					c9.235,37.243,18.97,74.36,29.18,111.346c20.395,73.978,42.579,147.466,66.578,220.365
					c24.038,72.884,49.731,145.239,77.571,216.781c13.92,35.77,28.273,71.375,43.21,106.741
					c14.976,35.349,30.465,70.483,46.486,105.38c16.093,34.864,32.803,69.446,50.058,103.76
					c17.285,34.301,35.355,68.208,53.968,101.819c37.404,67.118,77.607,132.748,121.472,195.939
					c21.801,31.684,44.815,62.54,68.604,92.786l8.971,11.306c2.985,3.773,5.964,7.551,9.071,11.227l18.441,22.216
					c12.601,14.553,25.087,29.215,38.214,43.313c51.816,56.992,108.647,109.602,170.267,156.156
					c3.256,2.46,7.889,1.814,10.348-1.441c2.46-3.256,1.814-7.889-1.441-10.348l-0.027-0.02l-0.052-0.039
					c-60.964-45.622-117.404-97.357-168.997-153.583c-13.068-13.903-25.512-28.382-38.073-42.751l-18.391-21.949
					c-3.098-3.631-6.071-7.366-9.051-11.097l-8.954-11.177c-23.747-29.907-46.745-60.443-68.556-91.831
					c-43.882-62.594-84.187-127.705-121.739-194.361c-18.687-33.381-36.843-67.07-54.223-101.166
					c-17.351-34.11-34.165-68.499-50.368-103.181c-16.132-34.715-31.739-69.677-46.839-104.862
					c-15.06-35.202-29.542-70.654-43.595-106.276c-28.107-71.248-54.082-143.339-78.413-215.979
					c-24.293-72.655-46.78-145.921-67.485-219.688c-10.365-36.88-20.256-73.893-29.648-111.031
					c-9.333-37.138-18.339-74.419-26.24-111.824l-0.009-0.042c-0.357-1.691-2.018-2.772-3.709-2.415
					C754.001,674.404,752.917,676.05,753.274,677.741z"/>
			</g>
			<g style="opacity:0.94;">
				<path style="fill:#BDD0FB;" d="M475.782,1381.808c31.991,163.933,253.905,1109.24,1105.379,1032.425
					c0,0,0.927-664.98-1088.584-1049.071C483.045,1361.801,473.691,1371.098,475.782,1381.808z"/>
				<path style="fill:#FFFFFF;" d="M589.583,1493.002c26.774,45.593,55.17,89.978,84.271,133.987
					c29.13,43.969,59.257,87.276,90.226,129.982c31.011,42.675,62.958,84.681,95.843,125.955
					c16.339,20.721,33.221,41.01,50.035,61.355l25.658,30.158c8.513,10.089,17.397,19.858,26.079,29.804
					c35.061,39.482,70.977,78.267,108.603,115.407c37.569,37.172,76.071,73.514,116.703,107.483
					c5.061,4.265,9.987,8.688,15.159,12.823l15.494,12.434l15.496,12.434c2.595,2.057,5.138,4.179,7.777,6.183l7.963,5.95
					l31.859,23.802l32.759,22.609c44.132,29.492,90.108,56.446,138.293,79.333c5.291,2.513,11.617,0.261,14.131-5.03
					s0.261-11.618-5.03-14.131l-0.091-0.044l-0.12-0.055c-47.216-21.877-92.569-47.861-136.272-76.457l-32.475-21.949
					l-31.653-23.177l-7.915-5.794c-2.623-1.952-5.157-4.026-7.74-6.034l-15.43-12.139l-15.432-12.139
					c-5.152-4.038-10.07-8.37-15.117-12.541c-40.52-33.211-79.042-68.874-116.686-105.405
					c-37.701-36.498-73.768-74.699-109.018-113.628c-8.73-9.809-17.662-19.439-26.228-29.396l-25.823-29.764
					c-16.931-20.088-33.934-40.124-50.405-60.603c-33.147-40.787-65.384-82.333-96.704-124.569
					c-31.278-42.267-61.734-85.155-91.203-128.715c-29.419-43.563-58.234-87.669-85.239-132.653l-0.04-0.067
					c-1.277-2.127-4.036-2.816-6.164-1.539C589.03,1488.145,588.338,1490.881,589.583,1493.002z"/>
			</g>
		</g>
		<g>
			<g>
				<path style="fill:#7D97F4;" d="M3005.584,2868.57h-1775.83c-21.448,0-38.835-17.387-38.835-38.835V570.488
					c0-21.448,17.387-38.835,38.835-38.835h1775.83c21.448,0,38.835,17.387,38.835,38.835v2259.247
					C3044.419,2851.183,3027.032,2868.57,3005.584,2868.57z"/>
				<path style="opacity:0.86;fill:#FFFFFF;" d="M2949.153,2781.434H1286.186c-21.448,0-38.835-17.387-38.835-38.835V625.65
					c0-21.448,17.387-38.835,38.835-38.835h1662.968c21.448,0,38.835,17.387,38.835,38.835v2116.949
					C2987.988,2764.046,2970.601,2781.434,2949.153,2781.434z"/>
			</g>
			
				<linearGradient id="SVGID_00000124143256995237738780000015053111274781990821_" gradientUnits="userSpaceOnUse" x1="3027.7825" y1="-103.0905" x2="3958.6243" y2="-1772.5333">
				<stop  offset="0" style="stop-color:#4F52FF"/>
				<stop  offset="1" style="stop-color:#4042E2"/>
			</linearGradient>
			<path style="fill:url(#SVGID_00000124143256995237738780000015053111274781990821_);" d="M1501.277,2787.97l90.653-720.49
				c18.273-122.422-17.9-245.479-97.778-331.799h-0.001c-44.413-47.995-72.481-111.412-78.772-179.801
				c-9.823-106.803-8.642-281.305,55.948-493.848c85.403-281.027,341.14-446.267,601.175-397.236
				c127.055,23.956,273.203,71.899,424.651,162.24c86.132,51.379,144.787,147.773,154.045,256.933
				c4.304,50.752,12.274,106.958,26.747,156.9c18.187,62.758,26.064,105.718,29.316,133.6c2.949,25.285-5.62,50.602-22.479,67.35
				l-0.002,0.003c-17.389,17.273-21.71,46.259-10.274,68.961l133.813,231.524l2.706,13.877
				c-7.761,26.419-27.295,59.591-49.084,61.837l-76.285,7.863l2.898,89.891c0.56,17.362-9.37,33.216-23.983,38.271l-17.529,6.064
				l15.997,14.161c12.999,11.507,16.412,32.47,8.029,49.285l-22.577,45.287c-10.227,20.514-8.762,45.695,3.696,63.568l0,0
				c20.591,29.542,8.503,68.234-5.365,103.925c0,0-99.21,82.783-174.053,93.07c-80.448,11.058-168.71-2.527-240.413-37.361
				c-20.483-9.951-44.126,8.209-44.126,33.746l5.966,462.179H1501.277z"/>
			<g>
				<path style="fill:#FFFFFF;" d="M2047.433,1566.546c-0.692,0-1.38-0.105-2.048-0.319l-118.072-37.663
					c-1.051-0.334-1.999-0.919-2.77-1.704l-54.783-55.909l-89.817-19.526l-120.773,10.805c-1.38,0.13-2.845-0.201-4.07-0.935
					l-127.323-76.459c-1.169-0.703-2.098-1.744-2.664-2.984l-41.745-91.527c-0.57-1.245-0.744-2.633-0.504-3.98l23.675-133.216
					l-3.553-91.15c-0.063-1.564,0.422-3.099,1.367-4.345l63.388-83.4l52.086-99.978c0.754-1.447,2.006-2.574,3.527-3.166
					l118.066-46.115l91.667-50.614c0.626-0.346,1.304-0.589,2.009-0.723l174.192-32.88c1.268-0.237,2.572-0.112,3.767,0.37
					l99.051,39.832l145.367-9.088c1.871-0.102,3.613,0.517,4.963,1.745l101.402,92.346l121.451,35.651
					c2.085,0.611,3.748,2.19,4.466,4.24l68.575,195.697c0.25,0.718,0.379,1.472,0.379,2.231v124.297
					c0,0.749-0.125,1.494-0.369,2.202l-47.759,138.342c-0.425,1.232-1.199,2.313-2.226,3.115l-143.397,111.878
					c-1.139,0.891-2.536,1.39-3.981,1.426l-143.562,3.575l-167.148,77.307C2049.37,1566.337,2048.402,1566.546,2047.433,1566.546z
					 M1933.007,1516.222l113.976,36.357l166.035-76.793c0.837-0.387,1.742-0.598,2.664-0.621l142.732-3.553l140.068-109.279
					l46.738-135.385v-122.018l-67.05-191.349l-119.624-35.114c-0.981-0.288-1.884-0.795-2.641-1.485l-100.44-91.47l-144.04,9.005
					c-1.001,0.058-2.006-0.099-2.938-0.474l-98.636-39.665l-171.192,32.313l-91.111,50.307c-0.26,0.143-0.53,0.27-0.807,0.377
					l-116.123,45.356l-51.18,98.241c-0.175,0.339-0.379,0.662-0.609,0.966l-62.272,81.931l3.488,89.459
					c0.02,0.484-0.013,0.968-0.099,1.444l-23.435,131.865l40.006,87.71l123.641,74.249l119.607-10.7
					c0.678-0.063,1.367-0.02,2.035,0.129l92.797,20.171c1.288,0.28,2.464,0.93,3.385,1.871L1933.007,1516.222z"/>
				<path style="fill:#FFFFFF;" d="M1738.36,1667.939c-0.283,0-0.566-0.023-0.846-0.071l-109.566-18.57
					c-0.794-0.135-1.544-0.458-2.19-0.94l-67.366-50.525c-1.097-0.823-1.811-2.058-1.983-3.42l-9.465-75.703l-41.577-57.416
					c-0.899-1.243-1.189-2.827-0.781-4.307l21.785-79.275l9.755,2.681l-21.143,76.933l40.915,56.502
					c0.501,0.69,0.817,1.495,0.922,2.34l9.359,74.86l64.669,48.501l106.928,18.123l108.038-44.434
					c0.267-0.11,0.543-0.198,0.827-0.26l109.941-24.409l34.579-49.069l8.273,5.829l-35.708,50.668
					c-0.728,1.029-1.811,1.75-3.04,2.024l-111.427,24.74l-108.977,44.819C1739.671,1667.811,1739.019,1667.939,1738.36,1667.939z"/>
				<polygon style="fill:#FFFFFF;" points="2112.495,1413.746 1921.694,1413.746 1908.462,1288.972 1654.932,1288.972 
					1718.528,1142.5 1683.676,1027.825 1509.358,1065.611 1507.929,1059.018 1688.319,1019.918 1725.701,1142.912 
					1665.214,1282.227 1914.528,1282.227 1927.76,1407.001 2107.482,1407.001 2158.824,1236.56 2301.55,1306.293 2390.062,1198.337 
					2500.099,1212.389 2547.607,1105.624 2300.779,1001.11 2179.973,1115.919 2027.19,1123.35 2017.564,956.368 1837.467,903.487 
					1821.955,786.811 1828.641,785.922 1843.572,898.251 2024.025,951.237 2033.539,1116.289 2177.141,1109.303 2299.336,993.177 
					2556.558,1102.091 2504.222,1219.714 2392.91,1205.5 2303.381,1314.694 2162.993,1246.104 				"/>
				<path style="fill:#FFFFFF;" d="M2087.901,1549.944l-163.025-139.674l-51.552,56.854l-1.245-1.047l-212.081-178.717l-0.234,0.17
					l-0.57,0.934l-0.385-0.236l-126.569,92.188l-1.982-2.727l125.433-91.363l-75.442-46.013l-4.887-81.862l0.161-0.372
					l53.745-122.531l-18.798-141.94l76.532,128.655l191.433,15.905l-153.751-97.752l114.677-40.927l77.259-136.737l133.142,67.427
					l-26.863,121.899l154.305-2.353l38.198-169.025l85.549,214.097l184.757-89.683l-29.036,158.337l-63.326,138.151l87.814,185.949
					l-175.724,3.402L2087.901,1549.944z M1924.579,1405.577l163.486,140.07l216.237-158.046l171.581-3.32l-86.26-182.659
					l0.329-0.713l63.566-138.672l27.67-151.183l-182.024,88.359l-82.868-207.382l-36.387,161.026l-161.22,2.458l27.219-123.51
					l-127.939-64.789l-76.291,135.024l-109.362,39.03l159.469,101.387l-206.792-17.179l-69.023-116.032l16.763,126.59l-0.188,0.431
					l-53.772,122.591l4.736,79.293l75.132,45.822l1.508-1.097l212.858,179.373L1924.579,1405.577z"/>
				<path style="opacity:0.68;fill:#FFFFFF;" d="M1929.361,1523.403c-0.267,0-0.527-0.084-0.748-0.244
					c-0.309-0.229-0.5-0.585-0.517-0.97l-4.634-114.214c-0.013-0.329,0.102-0.65,0.323-0.896l133.57-148.859l-27.65-135.324
					l-117.183,163.061c-0.257,0.354-0.675,0.56-1.11,0.524c-0.438-0.028-0.827-0.28-1.034-0.664l-58.679-109.581l-127.383-31.867
					l62.022,140.34c0.095,0.211,0.128,0.443,0.099,0.672l-12.231,95.122c-0.059,0.453-0.356,0.84-0.781,1.011l-143.2,57.864
					c-0.333,0.133-0.715,0.122-1.041-0.043c-0.326-0.163-0.566-0.458-0.659-0.81l-28.575-109.418l-111.002-54.179
					c-0.425-0.206-0.698-0.629-0.711-1.098c-0.013-0.469,0.234-0.909,0.642-1.14l231.274-130.521l-89.286-104.582l-117.292,102.536
					c-0.527,0.461-1.324,0.407-1.785-0.12c-0.461-0.525-0.405-1.324,0.118-1.783l118.257-103.38c0.254-0.222,0.596-0.323,0.925-0.31
					c0.336,0.025,0.649,0.183,0.869,0.44l90.85,106.416l130.043,32.532c0.346,0.087,0.639,0.314,0.81,0.629l57.987,108.285
					l117.684-163.761c0.293-0.41,0.823-0.598,1.291-0.499c0.494,0.105,0.876,0.491,0.975,0.983l28.358,138.78
					c0.082,0.394-0.03,0.8-0.296,1.098l-133.653,148.951l4.548,112.115l95.771-26.074l82.739-87.373
					c0.099-0.105,0.218-0.193,0.346-0.257l192.477-98.043c0.388-0.198,0.84-0.183,1.219,0.038c0.372,0.221,0.606,0.617,0.619,1.051
					l2.404,79.397c0.02,0.698-0.527,1.281-1.225,1.302c-0.82-0.036-1.284-0.528-1.304-1.227l-2.345-77.403l-190.504,97.038
					l-82.832,87.472c-0.161,0.168-0.362,0.29-0.586,0.351l-97.645,26.585C1929.585,1523.388,1929.473,1523.403,1929.361,1523.403z
					 M1492.22,1273.711l109.362,53.378c0.333,0.161,0.576,0.459,0.672,0.817l28.358,108.588l141.181-57.049l12.089-94.038
					l-62.361-141.105L1492.22,1273.711z"/>
				<path style="opacity:0.68;fill:#FFFFFF;" d="M2374.989,1468.437c-0.069,0-0.138-0.005-0.211-0.018l-143.529-24.241
					l-121.609-35.038c-0.408-0.119-0.731-0.433-0.86-0.84c-0.125-0.407-0.04-0.85,0.231-1.177l105.861-128.958
					c0.125-0.153,0.286-0.275,0.468-0.356l174.472-76.841l-89.55-200.305l-48.322,153.31c-0.063,0.201-0.175,0.384-0.329,0.53
					l-89.826,86.517c-0.385,0.374-0.971,0.461-1.449,0.217c-0.478-0.244-0.751-0.764-0.682-1.296l17.536-130.389l-153.142-87.363
					c-0.415-0.236-0.659-0.682-0.639-1.158c0.023-0.474,0.309-0.896,0.744-1.093l153.883-69.698c0.224-0.1,0.478-0.128,0.705-0.099
					l108.99,16.148l71.282-95.053c0.293-0.395,0.803-0.575,1.278-0.478c0.481,0.104,0.859,0.479,0.968,0.96l19.265,85.921
					l87.831,34.25c0.214,0.086,0.405,0.229,0.547,0.413l84.188,110.714c0.422,0.557,0.313,1.35-0.244,1.772
					c-0.553,0.425-1.347,0.316-1.772-0.24l-83.971-110.43l-88.127-34.365c-0.392-0.153-0.682-0.492-0.774-0.902l-18.811-83.902
					l-70.09,93.462c-0.277,0.372-0.721,0.553-1.196,0.492l-109.368-16.204l-151.285,68.522l151.729,86.556
					c0.448,0.255,0.695,0.756,0.629,1.266l-17.168,127.638l86.981-83.775l49.227-156.18c0.158-0.501,0.609-0.851,1.133-0.883
					c0.484-0.03,1.011,0.268,1.229,0.748l91.427,204.507c0.135,0.306,0.145,0.655,0.023,0.97c-0.119,0.315-0.362,0.566-0.668,0.703
					l-175.358,77.231l-104.452,127.239l119.624,34.475l143.391,24.21c0.688,0.115,1.153,0.769,1.037,1.457
					C2376.131,1468,2375.594,1468.437,2374.989,1468.437z"/>
				<path style="fill:#FFFFFF;" d="M2322.616,1459.591c-0.296,0-0.593-0.102-0.83-0.311c-0.527-0.459-0.583-1.258-0.122-1.785
					l60.744-69.672l-80.816-77.027c-0.343-0.328-0.474-0.818-0.339-1.273c0.132-0.454,0.507-0.795,0.975-0.884l128.13-24.591
					l70.92-69.056c0.323-0.311,0.774-0.428,1.212-0.316c0.428,0.117,0.767,0.451,0.889,0.879l21.653,77.141
					c0.188,0.673-0.204,1.372-0.876,1.559c-0.675,0.196-1.37-0.203-1.561-0.874l-21.077-75.092l-69.668,67.836
					c-0.178,0.173-0.402,0.29-0.646,0.336l-126.088,24.199l79.914,76.168c0.491,0.468,0.524,1.237,0.079,1.747l-61.541,70.584
					C2323.321,1459.445,2322.969,1459.591,2322.616,1459.591z"/>
				<path style="fill:#FFFFFF;" d="M1684.489,1026.703c-0.112,0-0.224-0.011-0.336-0.035c-0.738-0.15-1.284-0.769-1.344-1.518
					l-12.988-163.85c-0.076-0.929,0.619-1.74,1.548-1.815c0.833-0.068,1.739,0.619,1.811,1.548l12.527,158.014l44.877-85.835
					l36.634-116.184c0.28-0.888,1.238-1.377,2.114-1.102c0.889,0.282,1.38,1.228,1.1,2.116l-36.746,116.457l-47.702,91.297
					C1685.688,1026.363,1685.108,1026.703,1684.489,1026.703z"/>
				<path style="opacity:0.68;fill:#FFFFFF;" d="M1911.495,1286.484c-0.273,0-0.54-0.089-0.761-0.255l-189.381-142.704
					c-0.481-0.362-0.639-1.016-0.379-1.558l53.311-110.597l-53.001-93.791c-0.244-0.431-0.214-0.965,0.076-1.367
					c0.293-0.398,0.771-0.591,1.278-0.496l232.246,47.349l-58.636-64.71c-0.257-0.285-0.369-0.669-0.31-1.047
					s0.286-0.71,0.619-0.899l150.649-86.411l62.977-43.253c0.573-0.392,1.36-0.252,1.759,0.326c0.395,0.576,0.247,1.363-0.329,1.759
					l-63.062,43.308l-149.371,85.683l59.525,65.695l61.524-30.848l194.798-167.26c0.523-0.453,1.324-0.397,1.781,0.137
					c0.458,0.53,0.395,1.327-0.135,1.783l-195.055,167.432l-62.535,31.396l-72.85,54.995l-31.931,132.126l175.688-54.673
					c0.428-0.137,0.899-0.026,1.232,0.277l130.544,120.299c0.353,0.326,0.491,0.822,0.359,1.283
					c-0.135,0.461-0.517,0.807-0.991,0.892l-249.413,45.111C1911.647,1286.477,1911.571,1286.484,1911.495,1286.484z
					 M1723.705,1142.13l188.11,141.746l246.367-44.559l-128.137-118.082l-177.12,55.119c-0.432,0.14-0.909,0.028-1.242-0.285
					c-0.329-0.311-0.471-0.777-0.362-1.219l32.56-134.733c0.069-0.285,0.234-0.537,0.468-0.713l71.062-53.648l-230.56-47.006
					l51.961,91.952c0.204,0.361,0.221,0.799,0.04,1.171L1723.705,1142.13z"/>
				<path style="fill:#FFFFFF;" d="M2030.365,1121.074c-0.208,0-0.415-0.049-0.606-0.155l-145.255-79.397
					c-0.481-0.262-0.738-0.802-0.639-1.337c0.099-0.537,0.53-0.95,1.07-1.026l139.564-19.323l275.45-23.991
					c0.672-0.068,1.307,0.454,1.37,1.149c0.059,0.696-0.455,1.309-1.153,1.37l-275.384,23.985l-135.704,18.791l141.892,77.559
					c0.613,0.336,0.84,1.103,0.504,1.716C2031.244,1120.837,2030.813,1121.074,2030.365,1121.074z"/>
				<polygon style="fill:#FFFFFF;" points="1832.767,1620.166 1786.55,1549.294 1670.055,1523.546 1657.366,1458.147 
					1552.641,1518.257 1550.961,1515.333 1659.777,1452.875 1672.946,1520.73 1788.625,1546.297 1833.834,1615.625 
					1930.194,1558.877 1927.767,1523.549 1837.358,1506.172 1767.732,1446.932 1769.919,1444.363 1838.866,1503.027 
					1930.955,1520.727 1933.698,1560.725 				"/>
				<path style="opacity:0.68;fill:#FFFFFF;" d="M1692.083,1656.571c-0.478,0-0.952-0.204-1.284-0.593l-64.106-75.353
					l-30.851,38.327c-0.586,0.728-1.643,0.838-2.371,0.257c-0.724-0.585-0.84-1.647-0.257-2.371l31.256-38.827
					c-0.135-0.166-0.24-0.357-0.303-0.563l-26.478-84.208c-0.053-0.163-0.079-0.334-0.079-0.505v-71.878l-85.657,39.005
					c-0.846,0.389-1.844,0.011-2.233-0.837c-0.385-0.846-0.013-1.848,0.836-2.233l88.042-40.09c0.52-0.237,1.13-0.191,1.61,0.117
					c0.481,0.309,0.774,0.845,0.774,1.418v74.239l25.938,82.491l43.378-53.886c0.217-0.268,0.51-0.466,0.843-0.562l139.577-40.634
					c0.603-0.181,1.265,0,1.696,0.459c0.435,0.459,0.576,1.123,0.366,1.719l-41.916,119.25c-0.115,0.331-0.336,0.619-0.623,0.82
					l-77.19,54.131C1692.758,1656.471,1692.419,1656.571,1692.083,1656.571z M1628.847,1577.952l63.526,74.671l75.488-52.939
					l40.652-115.644l-135.919,39.568L1628.847,1577.952z"/>
				
					<ellipse transform="matrix(0.9239 -0.3827 0.3827 0.9239 -264.0332 722.6499)" style="fill:#FFFFFF;" cx="1684.488" cy="1025.018" rx="17.199" ry="17.199"/>
				<circle style="fill:#FFFFFF;" cx="1844.128" cy="902.069" r="17.199"/>
				
					<ellipse transform="matrix(0.1602 -0.9871 0.9871 0.1602 381.282 3267.6003)" style="fill:#FFFFFF;" cx="2110.943" cy="1409.729" rx="17.199" ry="17.199"/>
				
					<ellipse transform="matrix(0.1602 -0.9871 0.9871 0.1602 941.4625 3112.7969)" style="fill:#FFFFFF;" cx="2300.059" cy="1003.12" rx="17.199" ry="17.199"/>
				<circle style="fill:#FFFFFF;" cx="2037.09" cy="834.735" r="17.199"/>
				<circle style="fill:#FFFFFF;" cx="2030.364" cy="1119.809" r="17.199"/>
				
					<ellipse transform="matrix(0.9239 -0.3827 0.3827 0.9239 -346.437 828.7812)" style="fill:#FFFFFF;" cx="1910.066" cy="1285.22" rx="17.199" ry="17.199"/>
				<circle style="fill:#FFFFFF;" cx="1660.071" cy="1287.024" r="17.199"/>
				<circle style="fill:#FFFFFF;" cx="1677.27" cy="1522.138" r="17.199"/>
				
					<ellipse transform="matrix(0.9239 -0.3827 0.3827 0.9239 -278.3777 1008.536)" style="fill:#FFFFFF;" cx="2395.94" cy="1204.018" rx="17.199" ry="17.199"/>
				<circle style="fill:#FFFFFF;" cx="2454.041" cy="1068.081" r="17.199"/>
				
					<ellipse transform="matrix(0.7071 -0.7071 0.7071 0.7071 -156.6623 1500.5074)" style="fill:#FFFFFF;" cx="1732.942" cy="939.362" rx="10.827" ry="10.827"/>
				
					<ellipse transform="matrix(0.9239 -0.3827 0.3827 0.9239 -184.7458 983.0687)" style="fill:#FFFFFF;" cx="2378.741" cy="955.925" rx="10.827" ry="10.827"/>
				
					<ellipse transform="matrix(0.7071 -0.7071 0.7071 0.7071 -253.5239 2014.4304)" style="fill:#FFFFFF;" cx="2304.871" cy="1313.246" rx="10.827" ry="10.827"/>
				
					<ellipse transform="matrix(0.2298 -0.9732 0.9732 0.2298 626.1333 3361.5918)" style="fill:#FFFFFF;" cx="2436.842" cy="1285.22" rx="10.827" ry="10.827"/>
				
					<ellipse transform="matrix(0.2298 -0.9732 0.9732 0.2298 -127.2784 2934.7688)" style="fill:#FFFFFF;" cx="1790.479" cy="1547.796" rx="10.827" ry="10.827"/>
				
					<ellipse transform="matrix(0.2298 -0.9732 0.9732 0.2298 -287.5171 2802.623)" style="fill:#FFFFFF;" cx="1626.873" cy="1582.958" rx="10.827" ry="10.827"/>
				
					<ellipse transform="matrix(0.7071 -0.7071 0.7071 0.7071 -591.0234 1564.2493)" style="fill:#FFFFFF;" cx="1592.704" cy="1495.553" rx="10.827" ry="10.827"/>
				
					<ellipse transform="matrix(0.2298 -0.9732 0.9732 0.2298 439.4213 2636.0571)" style="fill:#FFFFFF;" cx="1885.11" cy="1040.412" rx="10.827" ry="10.827"/>
				
					<ellipse transform="matrix(0.2298 -0.9732 0.9732 0.2298 362.1634 2972)" style="fill:#FFFFFF;" cx="2058.722" cy="1257.194" rx="10.827" ry="10.827"/>
				
					<ellipse transform="matrix(0.2298 -0.9732 0.9732 0.2298 753.4478 2852.0107)" style="fill:#FFFFFF;" cx="2178.557" cy="949.995" rx="10.827" ry="10.827"/>
				
					<ellipse transform="matrix(0.2298 -0.9732 0.9732 0.2298 17.6931 2785.7612)" style="fill:#FFFFFF;" cx="1768.825" cy="1381.703" rx="10.827" ry="10.827"/>
				
					<ellipse transform="matrix(0.9239 -0.3827 0.3827 0.9239 -306.3799 798.8884)" style="fill:#FFFFFF;" cx="1854.955" cy="1169.583" rx="10.827" ry="10.827"/>
				
					<ellipse transform="matrix(0.2298 -0.9732 0.9732 0.2298 214.2599 2556.2595)" style="fill:#FFFFFF;" cx="1722.115" cy="1142.765" rx="10.827" ry="10.827"/>
				
					<ellipse transform="matrix(0.7071 -0.7071 0.7071 0.7071 -146.0079 1865.2544)" style="fill:#FFFFFF;" cx="2178.557" cy="1108.874" rx="10.827" ry="10.827"/>
			</g>
		</g>
		<g>
			<g>
				
					<linearGradient id="SVGID_00000096032135825135750820000013181465548516319913_" gradientUnits="userSpaceOnUse" x1="3876.8865" y1="2832.0081" x2="4065.426" y2="2613.168" gradientTransform="matrix(0.9932 -0.1165 0.1165 0.9932 -1459.4858 2.6361)">
					<stop  offset="0" style="stop-color:#FF928E"/>
					<stop  offset="1" style="stop-color:#FE7062"/>
				</linearGradient>
				
					<circle style="fill:url(#SVGID_00000096032135825135750820000013181465548516319913_);" cx="2885.997" cy="2119.578" r="140.565"/>
				
					<linearGradient id="SVGID_00000174598669035659293280000001498331843616485310_" gradientUnits="userSpaceOnUse" x1="4171.9634" y1="2453.5537" x2="3614.4465" y2="3295.8022" gradientTransform="matrix(0.9932 -0.1165 0.1165 0.9932 -1459.4858 2.6361)">
					<stop  offset="0" style="stop-color:#FF928E"/>
					<stop  offset="1" style="stop-color:#FE7062"/>
				</linearGradient>
				
					<circle style="fill:url(#SVGID_00000174598669035659293280000001498331843616485310_);" cx="2885.997" cy="2119.578" r="135.891"/>
				<path style="opacity:0.7;fill:#FFFFFF;" d="M2768.429,2079.168c-0.393,0.046-0.802,0.004-1.199-0.142
					c-1.354-0.495-2.05-1.995-1.554-3.347c16.715-45.703,57.1-77.615,105.396-83.282c7.707-0.905,15.507-1.117,23.183-0.626
					c1.439,0.09,2.531,1.33,2.44,2.771c-0.092,1.438-1.329,2.546-2.771,2.438c-7.364-0.468-14.848-0.265-22.244,0.603
					c-46.327,5.437-85.067,36.049-101.102,79.888C2770.229,2078.428,2769.377,2079.057,2768.429,2079.168z"/>
				
					<ellipse transform="matrix(0.7071 -0.7071 0.7071 0.7071 -654.3521 2664.6018)" style="opacity:0.78;fill:#FFFFFF;" cx="2889.283" cy="2122.174" rx="115.015" ry="115.015"/>
				<g>
					
						<linearGradient id="SVGID_00000058562762227545136350000004296933904280217987_" gradientUnits="userSpaceOnUse" x1="3529.7065" y1="1514.9709" x2="3246.9854" y2="1989.613" gradientTransform="matrix(0.9891 0.1475 -0.1475 0.9891 -280.6348 -10.2813)">
						<stop  offset="0" style="stop-color:#FF928E"/>
						<stop  offset="1" style="stop-color:#FE7062"/>
					</linearGradient>
					<path style="fill:url(#SVGID_00000058562762227545136350000004296933904280217987_);" d="M2888.039,2208.41l-1.458-12.428
						c-13.016,1.002-26.189-0.552-35.758-3.468c-3.417-1.041-5.502-4.494-4.97-8.027l1.799-11.946c0.66-4.382,5.02-7.121,9.28-5.896
						c9.472,2.725,20.972,4.411,32.992,3c12.479-1.465,21.288-6.787,20.27-15.459c-0.918-7.825-8.655-11.634-26.544-14.251
						c-25.539-3.864-44.572-12.566-47.128-34.351c-2.308-19.67,10.312-36.374,34.797-43.321l-1.459-12.429
						c-0.469-3.999,2.392-7.622,6.391-8.091l7.302-0.857c4-0.469,7.622,2.392,8.091,6.391l1.31,11.159
						c12.044-0.927,21.011,0.099,28.222,1.72c3.695,0.83,6.082,4.425,5.523,8.17l-1.647,11.047c-0.635,4.26-4.782,7.039-8.96,5.995
						c-6.659-1.663-15.969-3.116-27.686-1.74c-14.805,1.738-18.314,8.367-17.669,13.866c0.794,6.768,10.223,10.378,30.164,14.042
						c28.463,5.021,41.224,15.102,43.632,35.618c2.209,18.824-9.764,37.381-36.339,44.789l1.632,13.908
						c0.469,4-2.392,7.622-6.391,8.091l-7.303,0.857C2892.131,2215.271,2888.508,2212.409,2888.039,2208.41z"/>
				</g>
			</g>
			<g>
				
					<linearGradient id="SVGID_00000063598719843711369810000016555235710594603195_" gradientUnits="userSpaceOnUse" x1="4075.4263" y1="2645.312" x2="4297.165" y2="2387.9373" gradientTransform="matrix(0.9932 -0.1165 0.1165 0.9932 -1459.4858 2.6361)">
					<stop  offset="0" style="stop-color:#FF928E"/>
					<stop  offset="1" style="stop-color:#FE7062"/>
				</linearGradient>
				
					<circle style="fill:url(#SVGID_00000063598719843711369810000016555235710594603195_);" cx="3090.496" cy="1868.03" r="165.316"/>
				
					<linearGradient id="SVGID_00000118383271311222700870000017746249773956101288_" gradientUnits="userSpaceOnUse" x1="4422.4614" y1="2200.2173" x2="3766.7751" y2="3190.7725" gradientTransform="matrix(0.9932 -0.1165 0.1165 0.9932 -1459.4858 2.6361)">
					<stop  offset="0" style="stop-color:#FF928E"/>
					<stop  offset="1" style="stop-color:#FE7062"/>
				</linearGradient>
				
					<circle style="fill:url(#SVGID_00000118383271311222700870000017746249773956101288_);" cx="3090.496" cy="1868.03" r="159.819"/>
				<path style="opacity:0.7;fill:#FFFFFF;" d="M2952.216,1820.419c-0.448,0.053-0.916,0.005-1.37-0.162
					c-1.548-0.566-2.343-2.28-1.776-3.826c19.646-53.719,67.115-91.227,123.883-97.889c9.058-1.063,18.226-1.312,27.25-0.736
					c1.645,0.103,2.894,1.521,2.789,3.167c-0.105,1.644-1.51,2.9-3.167,2.786c-8.667-0.549-17.475-0.311-26.177,0.71
					c-54.518,6.398-100.106,42.42-118.975,94.01C2954.274,1819.573,2953.3,1820.292,2952.216,1820.419z"/>
				
					<ellipse transform="matrix(0.2036 -0.979 0.979 0.2036 632.3576 4519.585)" style="opacity:0.78;fill:#FFFFFF;" cx="3094.36" cy="1871.083" rx="135.267" ry="135.267"/>
				<g>
					
						<linearGradient id="SVGID_00000177470130099023555990000009237346046135921815_" gradientUnits="userSpaceOnUse" x1="3709.5981" y1="1214.105" x2="3377.095" y2="1772.3228" gradientTransform="matrix(0.9891 0.1475 -0.1475 0.9891 -280.6348 -10.2813)">
						<stop  offset="0" style="stop-color:#FF928E"/>
						<stop  offset="1" style="stop-color:#FE7062"/>
					</linearGradient>
					<path style="fill:url(#SVGID_00000177470130099023555990000009237346046135921815_);" d="M3092.897,1972.504l-1.715-14.616
						c-15.309,1.178-30.801-0.649-42.055-4.079c-4.019-1.225-6.471-5.285-5.845-9.44l2.115-14.05
						c0.776-5.154,5.904-8.375,10.913-6.934c11.141,3.205,24.665,5.188,38.802,3.529c14.676-1.722,25.036-7.982,23.84-18.181
						c-1.08-9.203-10.179-13.682-31.218-16.76c-30.037-4.544-52.42-14.778-55.427-40.399c-2.715-23.134,12.128-42.779,40.924-50.949
						l-1.715-14.618c-0.552-4.703,2.813-8.964,7.517-9.515l8.587-1.008c4.704-0.552,8.964,2.813,9.516,7.517l1.54,13.124
						c14.166-1.091,24.711,0.116,33.192,2.023c4.345,0.976,7.153,5.204,6.496,9.609l-1.937,12.992
						c-0.747,5.01-5.624,8.278-10.538,7.052c-7.832-1.956-18.78-3.664-32.561-2.047c-17.412,2.043-21.54,9.84-20.781,16.308
						c0.934,7.96,12.023,12.205,35.476,16.515c33.475,5.906,48.482,17.761,51.314,41.89c2.598,22.138-11.483,43.964-42.738,52.676
						l1.919,16.357c0.552,4.703-2.813,8.964-7.517,9.516l-8.589,1.008C3097.71,1980.573,3093.449,1977.208,3092.897,1972.504z"/>
				</g>
			</g>
			<g>
				
					<linearGradient id="SVGID_00000005966330021773035880000010224381983490792606_" gradientUnits="userSpaceOnUse" x1="3754.0493" y1="2998.2764" x2="3902.957" y2="2825.4373" gradientTransform="matrix(0.9932 -0.1165 0.1165 0.9932 -1459.4858 2.6361)">
					<stop  offset="0" style="stop-color:#FF928E"/>
					<stop  offset="1" style="stop-color:#FE7062"/>
				</linearGradient>
				
					<circle style="fill:url(#SVGID_00000005966330021773035880000010224381983490792606_);" cx="2748.675" cy="2350.348" r="111.017"/>
				
					<linearGradient id="SVGID_00000085214544607168119150000011881495704415850673_" gradientUnits="userSpaceOnUse" x1="3987.0994" y1="2699.3748" x2="3546.7756" y2="3364.5786" gradientTransform="matrix(0.9932 -0.1165 0.1165 0.9932 -1459.4858 2.6361)">
					<stop  offset="0" style="stop-color:#FF928E"/>
					<stop  offset="1" style="stop-color:#FE7062"/>
				</linearGradient>
				
					<circle style="fill:url(#SVGID_00000085214544607168119150000011881495704415850673_);" cx="2748.675" cy="2350.348" r="107.326"/>
				<path style="opacity:0.7;fill:#FFFFFF;" d="M2655.898,2319.1c-0.411,0.048-0.84,0.004-1.256-0.148
					c-1.419-0.52-2.148-2.09-1.628-3.506c13.29-36.335,45.398-61.706,83.794-66.212c6.119-0.718,12.32-0.887,18.432-0.499
					c1.506,0.095,2.651,1.394,2.556,2.9c-0.096,1.506-1.381,2.67-2.902,2.556c-5.784-0.365-11.654-0.206-17.448,0.474
					c-36.333,4.264-66.719,28.274-79.296,62.657C2657.783,2318.325,2656.891,2318.983,2655.898,2319.1z"/>
				
					<ellipse transform="matrix(0.9512 -0.3085 0.3085 0.9512 -591.5217 963.5114)" style="opacity:0.78;fill:#FFFFFF;" cx="2751.27" cy="2352.398" rx="90.838" ry="90.838"/>
				<g>
					
						<linearGradient id="SVGID_00000032617046745464452450000000377982399215658417_" gradientUnits="userSpaceOnUse" x1="3410.3345" y1="1789.6263" x2="3187.043" y2="2164.4956" gradientTransform="matrix(0.9891 0.1475 -0.1475 0.9891 -280.6348 -10.2813)">
						<stop  offset="0" style="stop-color:#FF928E"/>
						<stop  offset="1" style="stop-color:#FE7062"/>
					</linearGradient>
					<path style="fill:url(#SVGID_00000032617046745464452450000000377982399215658417_);" d="M2750.288,2420.507l-1.152-9.815
						c-10.28,0.791-20.685-0.436-28.242-2.739c-2.698-0.822-4.345-3.55-3.925-6.339l1.42-9.435c0.521-3.461,3.965-5.624,7.329-4.657
						c7.482,2.153,16.563,3.485,26.057,2.371c9.855-1.156,16.813-5.361,16.009-12.21c-0.725-6.18-6.835-9.188-20.964-11.255
						c-20.171-3.052-35.202-9.925-37.221-27.13c-1.823-15.535,8.144-28.728,27.482-34.214l-1.152-9.817
						c-0.371-3.159,1.889-6.02,5.048-6.391l5.767-0.677c3.159-0.371,6.02,1.89,6.391,5.048l1.034,8.813
						c9.513-0.732,16.595,0.078,22.29,1.359c2.918,0.656,4.803,3.494,4.362,6.452l-1.301,8.725
						c-0.501,3.364-3.777,5.559-7.077,4.735c-5.26-1.313-12.612-2.46-21.866-1.375c-11.693,1.373-14.465,6.608-13.955,10.951
						c0.627,5.345,8.074,8.197,23.824,11.09c22.48,3.966,32.558,11.927,34.46,28.131c1.745,14.867-7.711,29.524-28.701,35.374
						l1.289,10.984c0.371,3.158-1.889,6.02-5.048,6.39l-5.768,0.677C2753.52,2425.926,2750.658,2423.665,2750.288,2420.507z"/>
				</g>
			</g>
		</g>
		<g>
			<g>
				
					<linearGradient id="SVGID_00000050663736632688367600000011056310334301137046_" gradientUnits="userSpaceOnUse" x1="926.4667" y1="2884.6296" x2="2407.936" y2="1904.0143">
					<stop  offset="0" style="stop-color:#2B3582"/>
					<stop  offset="1" style="stop-color:#150E42"/>
				</linearGradient>
				<path style="fill:url(#SVGID_00000050663736632688367600000011056310334301137046_);" d="M508.709,3100.714
					c0,15.299,12.529,27.815,27.842,27.815h1505.596c15.313,0,27.842-12.517,27.842-27.815l12.528-865.225
					c0-15.298-18.024-45.165-51.057-42.921l-1471.435-38.073c-19.214-0.497-37.791,6.898-51.397,20.459
					c-13.606,13.562-21.051,32.104-20.597,51.3L508.709,3100.714z"/>
				<path style="fill:#7D97F4;" d="M536.197,3074.028c0,14.487,11.853,26.341,26.341,26.341H2005.84
					c14.487,0,26.341-11.854,26.341-26.341l11.822-785.459c-1.392-47.267-42.832-64.255-67.952-63.252l-1410.237-37.834
					c-13.498-0.362-26.549,4.838-36.11,14.375c-9.56,9.536-14.819,22.586-14.48,36.085L536.197,3074.028z"/>
				<path style="fill:#91B3FA;" d="M561.825,3045.749c0,13.671,11.463,24.857,25.472,24.857h1395.712
					c14.01,0,25.472-11.186,25.472-24.857l11.432-741.212c-1.346-44.604-41.42-60.635-65.712-59.689l-1363.736-35.703
					c-13.053-0.342-25.674,4.566-34.919,13.565s-14.33,21.314-14.002,34.053L561.825,3045.749z"/>
				<g>
					
						<linearGradient id="SVGID_00000102502967044018941170000006573932325477450403_" gradientUnits="userSpaceOnUse" x1="2012.723" y1="2565.3833" x2="2021.3761" y2="2565.3833">
						<stop  offset="0" style="stop-color:#DAE3FE"/>
						<stop  offset="1" style="stop-color:#E9EFFD"/>
					</linearGradient>
					<path style="fill:url(#SVGID_00000102502967044018941170000006573932325477450403_);" d="M2016.584,2592.939
						c-0.019,0-0.039,0-0.058,0c-2.133-0.024-3.836-1.376-3.803-3.024l0.934-49.153c0.031-1.629,1.753-2.934,3.857-2.934
						c0.019,0,0.039,0,0.058,0c2.133,0.024,3.836,1.376,3.803,3.024l-0.934,49.153
						C2020.41,2591.634,2018.688,2592.939,2016.584,2592.939z"/>
					
						<linearGradient id="SVGID_00000183964539817483932090000016544226034374067332_" gradientUnits="userSpaceOnUse" x1="1508.3617" y1="2350.3481" x2="2026.3173" y2="2350.3481">
						<stop  offset="0" style="stop-color:#DAE3FE"/>
						<stop  offset="1" style="stop-color:#E9EFFD"/>
					</linearGradient>
					<path style="fill:url(#SVGID_00000183964539817483932090000016544226034374067332_);" d="M2018.877,2472.489
						c-0.019,0-0.039,0-0.039,0c-2.152-0.024-3.855-1.379-3.822-3.024l3.581-188.256c-0.067-11.182-4.466-20.111-13.075-26.476
						c-16.071-11.881-41.587-11.274-42.661-11.236l-450.743-9.327c-2.131-0.042-3.813-1.412-3.755-3.057
						c0.056-1.644,1.693-3.044,3.963-2.896l450.475,9.327c2.803-0.128,29.969-0.491,48.062,12.886
						c10.178,7.525,15.378,17.893,15.455,30.808l-3.583,188.316C2022.703,2471.184,2020.981,2472.489,2018.877,2472.489z"/>
				</g>
				
					<linearGradient id="SVGID_00000098934950281755100070000011391675695023473589_" gradientUnits="userSpaceOnUse" x1="1273.8312" y1="3097.3335" x2="999.0135" y2="1936.9891">
					<stop  offset="0" style="stop-color:#2B3582"/>
					<stop  offset="1" style="stop-color:#150E42"/>
				</linearGradient>
				<path style="fill:url(#SVGID_00000098934950281755100070000011391675695023473589_);" d="M457.908,3200.354h1662.641
					c3.11,0,5.654-2.544,5.654-5.654v-64.714c0-3.109-2.544-5.654-5.654-5.654H457.908c-3.11,0-5.654,2.544-5.654,5.654v64.714
					C452.254,3197.809,454.798,3200.354,457.908,3200.354z"/>
			</g>
			<g>
				<g style="opacity:0.53;">
					<rect x="1357.886" y="2749.162" style="fill:#FFFFFF;" width="57.01" height="294.705"/>
					<rect x="1453.144" y="2749.162" style="fill:#FFFFFF;" width="57.01" height="294.705"/>
					<rect x="1548.404" y="2749.162" style="fill:#FFFFFF;" width="57.01" height="294.705"/>
					<rect x="1643.662" y="2749.162" style="fill:#FFFFFF;" width="57.01" height="294.705"/>
					<rect x="1738.921" y="2749.162" style="fill:#FFFFFF;" width="57.01" height="294.705"/>
					<rect x="1834.18" y="2749.162" style="fill:#FFFFFF;" width="57.01" height="294.705"/>
					<rect x="1929.439" y="2749.162" style="fill:#FFFFFF;" width="57.01" height="294.705"/>
				</g>
				<rect x="1357.886" y="2889.636" style="fill:#7D97F4;" width="57.01" height="154.23"/>
				<rect x="1453.144" y="2942.643" style="fill:#7D97F4;" width="57.01" height="101.224"/>
				<rect x="1548.404" y="2811.641" style="fill:#7D97F4;" width="57.01" height="232.226"/>
				<rect x="1643.662" y="2988.077" style="fill:#7D97F4;" width="57.01" height="55.789"/>
				<rect x="1738.921" y="2842.688" style="fill:#7D97F4;" width="57.01" height="201.179"/>
				<rect x="1834.18" y="2877.521" style="fill:#7D97F4;" width="57.01" height="166.346"/>
				<rect x="1929.439" y="2915.383" style="fill:#7D97F4;" width="57.01" height="128.484"/>
			</g>
			<g>
				<g>
					<g>
						<defs>
							<path id="SVGID_00000025429219639278770820000008901505888453917345_" d="M662.508,2795.319
								c-58.274,0-105.513,47.24-105.513,105.513c0,58.273,47.24,105.513,105.513,105.513c58.273,0,105.513-47.24,105.513-105.513
								C768.021,2842.559,720.781,2795.319,662.508,2795.319z M662.508,2960.945c-33.2,0-60.113-26.914-60.113-60.114
								c0-33.199,26.914-60.113,60.113-60.113c33.199,0,60.113,26.914,60.113,60.113
								C722.62,2934.031,695.706,2960.945,662.508,2960.945z"/>
						</defs>
						
							<use xlink:href="#SVGID_00000025429219639278770820000008901505888453917345_"  style="overflow:visible;opacity:0.57;fill:#FFFFFF;"/>
						<clipPath id="SVGID_00000159429623375953811080000012251642627900699580_">
							<use xlink:href="#SVGID_00000025429219639278770820000008901505888453917345_"  style="overflow:visible;opacity:0.57;"/>
						</clipPath>
						
							<rect x="515.16" y="2877.627" style="clip-path:url(#SVGID_00000159429623375953811080000012251642627900699580_);fill:#7D97F4;" width="313.425" height="132.64"/>
					</g>
				</g>
				<g>
					<g>
						<defs>
							<path id="SVGID_00000089537699030265296140000014711766811695379876_" d="M919.717,2795.319
								c-58.273,0-105.513,47.24-105.513,105.513c0,58.273,47.24,105.513,105.513,105.513c58.274,0,105.513-47.24,105.513-105.513
								C1025.231,2842.559,977.991,2795.319,919.717,2795.319z M919.717,2960.945c-33.199,0-60.113-26.914-60.113-60.114
								c0-33.199,26.914-60.113,60.113-60.113c33.2,0,60.113,26.914,60.113,60.113
								C979.83,2934.031,952.917,2960.945,919.717,2960.945z"/>
						</defs>
						
							<use xlink:href="#SVGID_00000089537699030265296140000014711766811695379876_"  style="overflow:visible;opacity:0.57;fill:#FFFFFF;"/>
						<clipPath id="SVGID_00000174566033976459958400000002138431857603601303_">
							<use xlink:href="#SVGID_00000089537699030265296140000014711766811695379876_"  style="overflow:visible;opacity:0.57;"/>
						</clipPath>
						
							<rect x="772.37" y="2826.358" style="clip-path:url(#SVGID_00000174566033976459958400000002138431857603601303_);fill:#7D97F4;" width="313.425" height="183.908"/>
					</g>
				</g>
				<g>
					<g>
						<defs>
							<path id="SVGID_00000152237767745457756850000016867256760402274233_" d="M1176.927,2795.319
								c-58.274,0-105.513,47.24-105.513,105.513c0,58.273,47.239,105.513,105.513,105.513c58.274,0,105.513-47.24,105.513-105.513
								C1282.441,2842.559,1235.201,2795.319,1176.927,2795.319z M1176.927,2960.945c-33.2,0-60.114-26.914-60.114-60.114
								c0-33.199,26.914-60.113,60.114-60.113c33.199,0,60.113,26.914,60.113,60.113
								C1237.041,2934.031,1210.127,2960.945,1176.927,2960.945z"/>
						</defs>
						
							<use xlink:href="#SVGID_00000152237767745457756850000016867256760402274233_"  style="overflow:visible;opacity:0.57;fill:#FFFFFF;"/>
						<clipPath id="SVGID_00000119106782448634910610000002877342454697706121_">
							<use xlink:href="#SVGID_00000152237767745457756850000016867256760402274233_"  style="overflow:visible;opacity:0.57;"/>
						</clipPath>
						
							<rect x="1029.58" y="2943.947" style="clip-path:url(#SVGID_00000119106782448634910610000002877342454697706121_);fill:#7D97F4;" width="313.425" height="66.32"/>
					</g>
				</g>
			</g>
			<g>
				<path style="fill:#FFFFFF;" d="M767.171,2357.48H580.885c-7.793,0-14.11,5.794-14.11,12.941s6.317,12.941,14.11,12.941h186.286
					c7.793,0,14.11-5.794,14.11-12.941S774.964,2357.48,767.171,2357.48z"/>
				<path style="fill:#FFFFFF;" d="M767.171,2303.523H580.885c-7.793,0-14.11,5.794-14.11,12.941c0,7.147,6.317,12.941,14.11,12.941
					h186.286c7.793,0,14.11-5.794,14.11-12.941C781.281,2309.317,774.964,2303.523,767.171,2303.523z"/>
				<path style="fill:#FFFFFF;" d="M767.171,2414.782H580.885c-7.793,0-14.11,5.794-14.11,12.941s6.317,12.941,14.11,12.941h186.286
					c7.793,0,14.11-5.794,14.11-12.941S774.964,2414.782,767.171,2414.782z"/>
				<path style="fill:#FFFFFF;" d="M767.171,2643.992H580.885c-7.793,0-14.11,5.794-14.11,12.941s6.317,12.941,14.11,12.941h186.286
					c7.793,0,14.11-5.794,14.11-12.941S774.964,2643.992,767.171,2643.992z"/>
				<path style="fill:#FFFFFF;" d="M767.171,2586.689H580.885c-7.793,0-14.11,5.794-14.11,12.941s6.317,12.941,14.11,12.941h186.286
					c7.793,0,14.11-5.794,14.11-12.941S774.964,2586.689,767.171,2586.689z"/>
				<path style="fill:#FFFFFF;" d="M767.171,2529.387H580.885c-7.793,0-14.11,5.794-14.11,12.941c0,7.147,6.317,12.941,14.11,12.941
					h186.286c7.793,0,14.11-5.794,14.11-12.941C781.281,2535.181,774.964,2529.387,767.171,2529.387z"/>
				<path style="fill:#FFFFFF;" d="M1026.121,2357.48H839.836c-7.793,0-14.11,5.794-14.11,12.941s6.317,12.941,14.11,12.941h186.286
					c7.793,0,14.11-5.794,14.11-12.941S1033.914,2357.48,1026.121,2357.48z"/>
				<path style="fill:#FFFFFF;" d="M1026.121,2303.523H839.836c-7.793,0-14.11,5.794-14.11,12.941
					c0,7.147,6.317,12.941,14.11,12.941h186.286c7.793,0,14.11-5.794,14.11-12.941
					C1040.231,2309.317,1033.914,2303.523,1026.121,2303.523z"/>
				<path style="fill:#FFFFFF;" d="M1026.121,2414.782H839.836c-7.793,0-14.11,5.794-14.11,12.941s6.317,12.941,14.11,12.941
					h186.286c7.793,0,14.11-5.794,14.11-12.941S1033.914,2414.782,1026.121,2414.782z"/>
				<path style="fill:#FFFFFF;" d="M1026.121,2643.992H839.836c-7.793,0-14.11,5.794-14.11,12.941s6.317,12.941,14.11,12.941
					h186.286c7.793,0,14.11-5.794,14.11-12.941S1033.914,2643.992,1026.121,2643.992z"/>
				<path style="fill:#FFFFFF;" d="M1026.121,2586.689H839.836c-7.793,0-14.11,5.794-14.11,12.941s6.317,12.941,14.11,12.941
					h186.286c7.793,0,14.11-5.794,14.11-12.941S1033.914,2586.689,1026.121,2586.689z"/>
				<path style="fill:#FFFFFF;" d="M1026.121,2529.387H839.836c-7.793,0-14.11,5.794-14.11,12.941
					c0,7.147,6.317,12.941,14.11,12.941h186.286c7.793,0,14.11-5.794,14.11-12.941
					C1040.231,2535.181,1033.914,2529.387,1026.121,2529.387z"/>
				<path style="fill:#FFFFFF;" d="M1285.071,2357.48h-186.286c-7.793,0-14.11,5.794-14.11,12.941s6.317,12.941,14.11,12.941
					h186.286c7.793,0,14.11-5.794,14.11-12.941S1292.864,2357.48,1285.071,2357.48z"/>
				<path style="fill:#FFFFFF;" d="M1277.658,2303.523h-186.286c-7.793,0-14.11,5.794-14.11,12.941
					c0,7.147,6.317,12.941,14.11,12.941h186.286c7.793,0,14.11-5.794,14.11-12.941
					C1291.768,2309.317,1285.45,2303.523,1277.658,2303.523z"/>
				<path style="fill:#FFFFFF;" d="M1285.071,2414.782h-186.286c-7.793,0-14.11,5.794-14.11,12.941s6.317,12.941,14.11,12.941
					h186.286c7.793,0,14.11-5.794,14.11-12.941S1292.864,2414.782,1285.071,2414.782z"/>
				<path style="fill:#FFFFFF;" d="M1285.071,2643.992h-186.286c-7.793,0-14.11,5.794-14.11,12.941s6.317,12.941,14.11,12.941
					h186.286c7.793,0,14.11-5.794,14.11-12.941S1292.864,2643.992,1285.071,2643.992z"/>
				<path style="fill:#FFFFFF;" d="M1285.071,2586.689h-186.286c-7.793,0-14.11,5.794-14.11,12.941s6.317,12.941,14.11,12.941
					h186.286c7.793,0,14.11-5.794,14.11-12.941S1292.864,2586.689,1285.071,2586.689z"/>
				<path style="fill:#FFFFFF;" d="M1285.071,2529.387h-186.286c-7.793,0-14.11,5.794-14.11,12.941
					c0,7.147,6.317,12.941,14.11,12.941h186.286c7.793,0,14.11-5.794,14.11-12.941
					C1299.181,2535.181,1292.864,2529.387,1285.071,2529.387z"/>
			</g>
			<path style="opacity:0.32;fill:#FFFFFF;" d="M1957.052,2679.473H1363.53c-6.621,0-11.989-5.367-11.989-11.989v-367.443
				c0-6.621,5.367-11.989,11.989-11.989h593.522c6.621,0,11.988,5.367,11.988,11.989v367.443
				C1969.041,2674.106,1963.673,2679.473,1957.052,2679.473z"/>
		</g>
		<g>
			
				<linearGradient id="SVGID_00000144320954339316797550000018092958944930152336_" gradientUnits="userSpaceOnUse" x1="3368.0493" y1="1727.2832" x2="2882.2109" y2="2935.1313">
				<stop  offset="0" style="stop-color:#FF928E"/>
				<stop  offset="1" style="stop-color:#FE7062"/>
			</linearGradient>
			<path style="fill:url(#SVGID_00000144320954339316797550000018092958944930152336_);" d="M2633.879,3133.31l318.361-609.913
				h-65.226c-12.028,0-18.643-13.984-11.014-23.282l339.309-413.549c14.706-17.924,43.756-6.555,42.39,16.588l-23.851,404.401
				c-1.365,23.15-21.893,40.405-44.933,37.768l-45.476-5.205l-315.878,684.079c-8.223,17.808-26.049,29.211-45.664,29.211h-109.479
				L2633.879,3133.31z"/>
			
				<linearGradient id="SVGID_00000040533603991288247420000001053066748725047971_" gradientUnits="userSpaceOnUse" x1="2885.2097" y1="3502.6904" x2="2541.2371" y2="2902.4255">
				<stop  offset="0" style="stop-color:#FF928E"/>
				<stop  offset="1" style="stop-color:#FE7062"/>
			</linearGradient>
			<path style="fill:url(#SVGID_00000040533603991288247420000001053066748725047971_);" d="M2370.663,2705.55l224.757,499.269
				c13.313,29.572,42.729,48.589,75.159,48.589h115.867c15.373,0,29.537-8.34,36.994-21.783l4.121-7.428l0,0
				c-12.449,0-23.847-6.979-29.506-18.068l-299.462-586.751L2370.663,2705.55z"/>
			
				<linearGradient id="SVGID_00000102528265261659406230000010204559807088715960_" gradientUnits="userSpaceOnUse" x1="2521.896" y1="2514.7148" x2="2043.0331" y2="3108.2356">
				<stop  offset="0" style="stop-color:#FF928E"/>
				<stop  offset="1" style="stop-color:#FE7062"/>
			</linearGradient>
			<path style="fill:url(#SVGID_00000102528265261659406230000010204559807088715960_);" d="M2528.84,2678.644L2528.84,2678.644
				c-22.538-17.798-55.468-12.565-71.38,11.341l-330.455,496.484c-26.467,39.764-71.068,63.656-118.835,63.656h-46.499
				l-37.842-109.012c0,0,307.209-471.049,386.391-542.305c0,0,78.854-71.068,156.602-17.335
				c20.541,14.196,36.136,34.456,45.661,57.537L2528.84,2678.644z"/>
			
				<linearGradient id="SVGID_00000071517518046058363980000001784381163830810550_" gradientUnits="userSpaceOnUse" x1="2108.9385" y1="3253.6567" x2="1623.3564" y2="2813.5986">
				<stop  offset="0" style="stop-color:#FF928E"/>
				<stop  offset="1" style="stop-color:#FE7062"/>
			</linearGradient>
			<path style="fill:url(#SVGID_00000071517518046058363980000001784381163830810550_);" d="M1564.414,2847.929
				c0,0,55.316-69.142,162.506-79.898c0,0,50.911,17.345,152.336,199.086c101.426,181.741,168.749,264.619,247.749,219.352
				l-6.541,10.86c-21.554,35.788-60.28,57.672-102.059,57.672h-43.693c-48.106,0-89.881-74.096-117.973-113.148
				C1777.801,3032.116,1612.906,2864.964,1564.414,2847.929z"/>
			<path style="opacity:0.7;fill:#FFFFFF;" d="M3219.417,2232.929c-0.191,0-0.382-0.01-0.576-0.033
				c-2.776-0.313-4.772-2.819-4.456-5.595l2.236-19.746c0.316-2.776,2.816-4.784,5.595-4.456c2.776,0.313,4.772,2.819,4.456,5.595
				l-2.236,19.746C3224.143,2231.022,3221.957,2232.929,3219.417,2232.929z"/>
			<path style="opacity:0.7;fill:#FFFFFF;" d="M2936.166,2482.186c-1.077,0-2.164-0.342-3.083-1.051
				c-2.213-1.703-2.628-4.879-0.922-7.094l280.185-364.061c3.781-4.918,10.189-6.659,15.946-4.331
				c5.753,2.327,9.149,8.032,8.447,14.197l-4.943,43.639c-0.316,2.776-2.802,4.783-5.595,4.456
				c-2.776-0.313-4.772-2.819-4.456-5.595l4.943-43.639c0.28-2.478-1.607-3.443-2.19-3.68c-0.59-0.236-2.612-0.855-4.136,1.125
				l-280.185,364.061C2939.183,2481.507,2937.681,2482.186,2936.166,2482.186z"/>
			<path style="opacity:0.7;fill:#FFFFFF;" d="M2300.535,2863.847c-0.975,0-1.959-0.28-2.825-0.865
				c-2.315-1.563-2.928-4.708-1.364-7.023l144.906-214.792c5.589-8.284,14.882-12.761,24.831-12.019
				c9.959,0.756,18.458,6.598,22.73,15.626c1.196,2.524,0.119,5.541-2.407,6.736c-2.519,1.198-5.539,0.115-6.735-2.409
				c-2.7-5.7-8.065-9.389-14.352-9.865c-6.3-0.473-12.152,2.36-15.682,7.588l-144.906,214.792
				C2303.756,2863.067,2302.159,2863.847,2300.535,2863.847z"/>
			<path style="opacity:0.7;fill:#FFFFFF;" d="M2262.88,2919.663c-0.975,0-1.959-0.28-2.826-0.866
				c-2.315-1.563-2.928-4.706-1.363-7.021l9.293-13.772c1.561-2.318,4.709-2.924,7.021-1.363c2.315,1.563,2.927,4.706,1.363,7.021
				l-9.293,13.772C2266.101,2918.882,2264.504,2919.663,2262.88,2919.663z"/>
		</g>
		<g>
			
				<linearGradient id="SVGID_00000135674839213246975550000016813094966298544290_" gradientUnits="userSpaceOnUse" x1="1287.4829" y1="2946.062" x2="1280.8928" y2="2316.6709">
				<stop  offset="0" style="stop-color:#2B3582"/>
				<stop  offset="1" style="stop-color:#150E42"/>
			</linearGradient>
			<path style="fill:url(#SVGID_00000135674839213246975550000016813094966298544290_);" d="M1449.359,2548.731
				c-0.585-7.254-7.995-13.533-20.542-18.567c13.635-7.518,21.178-15.577,20.542-23.48c-1.928-23.917-77.667-37.324-169.168-29.946
				c-91.501,7.378-164.114,32.747-162.185,56.662c0.584,7.255,7.994,13.533,20.541,18.567c-13.636,7.52-21.179,15.578-20.541,23.481
				c0.584,7.253,7.994,13.532,20.541,18.566c-13.636,7.519-21.179,15.578-20.541,23.482c0.584,7.254,7.994,13.533,20.541,18.566
				c-13.636,7.519-21.179,15.578-20.541,23.481c0.853,10.577,16.161,19.093,40.867,24.671c-0.321,7.816-0.142,16.384,0.626,25.842
				c3.579,44.07,53.15,78.624,118.713,78.624c65.565,0,122.31-47.113,122.955-91.323c0.157-10.834-0.304-20.371-1.284-28.847
				c31.37-10.475,50.476-23.271,49.475-35.684c-0.585-7.254-7.995-13.533-20.542-18.566c13.635-7.52,21.178-15.578,20.542-23.482
				c-0.585-7.254-7.995-13.533-20.542-18.566C1442.453,2564.694,1449.996,2556.635,1449.359,2548.731z"/>
			<g>
				
					<linearGradient id="SVGID_00000182488604839017009310000012350298113871773343_" gradientUnits="userSpaceOnUse" x1="1324.6659" y1="1489.8221" x2="1298.3043" y2="2152.1633">
					<stop  offset="0" style="stop-color:#4F52FF"/>
					<stop  offset="1" style="stop-color:#4042E2"/>
				</linearGradient>
				<path style="fill:url(#SVGID_00000182488604839017009310000012350298113871773343_);" d="M1237.852,2693.732
					c-27.174,0-52.039-1.999-72.584-5.933c-1.193-0.228-1.973-1.379-1.746-2.572c0.228-1.191,1.374-1.973,2.572-1.745
					c32.147,6.154,75.084,7.511,120.903,3.816c37.492-3.023,72.554-9.07,101.396-17.487c1.168-0.34,2.386,0.328,2.725,1.493
					c0.34,1.165-0.328,2.385-1.493,2.725c-29.124,8.5-64.49,14.603-102.274,17.649
					C1270.332,2693.052,1253.699,2693.732,1237.852,2693.732z"/>
				
					<linearGradient id="SVGID_00000054261111850760303860000014451778407054017926_" gradientUnits="userSpaceOnUse" x1="1330.6011" y1="1490.0597" x2="1304.2395" y2="2152.4021">
					<stop  offset="0" style="stop-color:#4F52FF"/>
					<stop  offset="1" style="stop-color:#4042E2"/>
				</linearGradient>
				<path style="fill:url(#SVGID_00000054261111850760303860000014451778407054017926_);" d="M1238.308,2651.646
					c-35.307,0-66.86-3.321-89.116-9.658c-1.167-0.332-1.843-1.548-1.512-2.715c0.334-1.168,1.545-1.843,2.716-1.512
					c31.714,9.031,82.779,11.83,136.601,7.491c53.239-4.293,102.892-15.096,132.82-28.9c1.103-0.506,2.408-0.026,2.917,1.075
					c0.507,1.102,0.026,2.408-1.075,2.916c-30.374,14.008-80.583,24.957-134.309,29.289
					C1270.585,2650.984,1254.071,2651.646,1238.308,2651.646z"/>
				
					<linearGradient id="SVGID_00000076603241035352611610000014544313023904667555_" gradientUnits="userSpaceOnUse" x1="1326.3099" y1="1489.8853" x2="1299.9485" y2="2152.2268">
					<stop  offset="0" style="stop-color:#4F52FF"/>
					<stop  offset="1" style="stop-color:#4042E2"/>
				</linearGradient>
				<path style="fill:url(#SVGID_00000076603241035352611610000014544313023904667555_);" d="M1237.856,2609.629
					c-38.122,0-71.482-3.9-93.935-11.304c-1.154-0.38-1.779-1.623-1.4-2.775c0.38-1.153,1.618-1.78,2.775-1.4
					c31.246,10.304,84.22,13.686,141.701,9.053c53.236-4.292,102.888-15.096,132.82-28.901c1.103-0.505,2.408-0.025,2.917,1.075
					c0.507,1.103,0.026,2.408-1.075,2.917c-30.376,14.009-80.586,24.959-134.309,29.29
					C1270.326,2608.958,1253.68,2609.629,1237.856,2609.629z"/>
				
					<linearGradient id="SVGID_00000039133699926060767840000011712287704252876202_" gradientUnits="userSpaceOnUse" x1="1331.8156" y1="1490.1049" x2="1305.4541" y2="2152.446">
					<stop  offset="0" style="stop-color:#4F52FF"/>
					<stop  offset="1" style="stop-color:#4042E2"/>
				</linearGradient>
				<path style="fill:url(#SVGID_00000039133699926060767840000011712287704252876202_);" d="M1238.15,2567.561
					c-30.24,0-57.744-2.445-79.126-7.196c-1.185-0.263-1.932-1.437-1.669-2.621c0.263-1.186,1.442-1.934,2.622-1.669
					c32.153,7.145,78.451,8.995,127.02,5.079c52.762-4.254,102.161-14.94,132.142-28.589c1.104-0.505,2.407-0.015,2.91,1.09
					c0.503,1.104,0.015,2.407-1.09,2.911c-30.419,13.847-80.366,24.676-133.609,28.969
					C1270.528,2566.893,1253.964,2567.561,1238.15,2567.561z"/>
			</g>
			
				<linearGradient id="SVGID_00000103260089002969286700000004184885281525365121_" gradientUnits="userSpaceOnUse" x1="1275.545" y1="2593.5825" x2="1289.0348" y2="1521.1996">
				<stop  offset="0" style="stop-color:#FF928E"/>
				<stop  offset="1" style="stop-color:#FE7062"/>
			</linearGradient>
			<path style="fill:url(#SVGID_00000103260089002969286700000004184885281525365121_);" d="M1056.592,2336.48
				c-11.114-39.362-29.989-76.147-55.411-108.188c-54.472-68.651-143.336-208.267-154.274-398.819
				c-15.91-277.166,229.905-415.93,454.214-397.092c224.31,18.838,445.646,185.853,421.415,443.702
				c-14.909,158.655-103.71,278.996-169.827,348.108c-41.984,43.886-71.932,97.638-88.144,156.169
				c-19.842,71.64-67.062,160.917-179.298,166.359C1140.036,2553.762,1079.719,2418.392,1056.592,2336.48z"/>
			
				<linearGradient id="SVGID_00000114069438882190060280000008848501597662816688_" gradientUnits="userSpaceOnUse" x1="1366.9594" y1="2127.3264" x2="1399.1903" y2="3151.3948">
				<stop  offset="0" style="stop-color:#E1473D"/>
				<stop  offset="1" style="stop-color:#E9605A"/>
			</linearGradient>
			<path style="fill:url(#SVGID_00000114069438882190060280000008848501597662816688_);" d="M1322.365,2491.448l78.486-510.478
				c1.621-10.545,6.811-17.628,11.592-15.819c4.781,1.81,7.342,11.826,5.721,22.372c-0.044,0.281-0.101,0.628-0.15,0.904
				l-89.401,505.734c-0.672,3.803-2.604,6.205-4.314,5.365C1322.64,2498.712,1321.801,2495.13,1322.365,2491.448z"/>
			
				<linearGradient id="SVGID_00000089535402156367645110000008238180659921144217_" gradientUnits="userSpaceOnUse" x1="1189.4136" y1="2132.9148" x2="1221.6445" y2="3156.9856">
				<stop  offset="0" style="stop-color:#E1473D"/>
				<stop  offset="1" style="stop-color:#E9605A"/>
			</linearGradient>
			<path style="fill:url(#SVGID_00000089535402156367645110000008238180659921144217_);" d="M1240.894,2495.502l-78.486-510.478
				c-1.621-10.546-6.812-17.628-11.592-15.819c-4.781,1.81-7.342,11.826-5.721,22.373c0.043,0.28,0.101,0.628,0.15,0.904
				l89.401,505.734c0.672,3.803,2.604,6.205,4.314,5.365C1240.618,2502.765,1241.457,2499.184,1240.894,2495.502z"/>
			<path style="fill:#FFFFFF;" d="M1400.287,1937.141c-1.993-3.205-6.605-4.402-10.303-2.676l-43.703,20.42l-15.17-43.223
				c-0.802-2.255-2.662-4.254-5.314-5.347c-5.027-2.072-11.039-0.219-13.429,4.139l-0.077,0.141l-35.94,65.53L1243,1882.839
				l-0.055-0.155c-0.817-2.277-2.538-4.323-5.048-5.692c-5.593-3.053-12.98-1.597-16.502,3.25l-50.245,69.17
				c-2.044,2.835-1.341,6.634,1.77,8.729c3.32,2.238,8.105,1.717,10.685-1.161l44.241-49.35l39.831,88.742l0.03,0.068
				c0.638,1.419,1.84,2.659,3.509,3.44c3.738,1.75,8.404,0.543,10.423-2.697l38.439-61.682l14.467,31.198l0.128,0.277
				c0.105,0.224,0.224,0.445,0.36,0.663c1.991,3.202,6.6,4.399,10.294,2.673l51.875-24.239
				C1400.898,1944.344,1402.28,1940.346,1400.287,1937.141z"/>
		</g>
	</g>
</g>
</svg>
