<svg xmlns="http://www.w3.org/2000/svg" xmlns:xlink="http://www.w3.org/1999/xlink" id="Capa_1" x="0px" y="0px" viewBox="0 0 156 50" style="enable-background:new 0 0 156 50;" xml:space="preserve"><style type="text/css">	.st0{fill:#FFFFFF;}</style><g>	<g>		<g>			<g>				<g>					<path class="st0" d="M57.6,42.6c0,1.9-1.5,3.4-3.4,3.4c-1.1,0-2-0.5-2.5-1.3v1.1h-1.2v-9h1.2v3.6c0.5-0.8,1.4-1.3,2.5-1.3      C56,39.2,57.6,40.7,57.6,42.6 M56.4,42.6c0-1.3-1-2.3-2.4-2.3c-1.4,0-2.4,1-2.4,2.3c0,1.3,1,2.3,2.4,2.3      C55.4,45,56.4,44,56.4,42.6 M64.3,39.4l-2.7,6.9c-0.6,1.5-1.6,2.3-3,2.2v-1.1c0.9,0.1,1.5-0.5,1.8-1.3l0.1-0.2l-2.9-6.5h1.2      l2.3,5.1l1.9-5.1H64.3z M91.9,42.5l-2.3-3.1h2l1.4,1.9l1.3-1.9h1.9l-2.3,3.2l2.4,3.3h-2l-1.5-2.1l-1.5,2.1h-1.9L91.9,42.5z       M101.6,43.9c0.2,0.5,0.6,0.8,1.3,0.8c0.5,0,0.8-0.2,0.8-0.6c0-0.4-0.2-0.6-1.2-0.9c-1.2-0.4-2-1.1-2-2.1      c0-1.1,0.8-1.9,2.3-1.9c1.5,0,2.3,0.6,2.5,1.6l-1.3,0.5c-0.1-0.5-0.5-0.8-1.1-0.8c-0.5,0-0.7,0.2-0.7,0.5      c0,0.4,0.3,0.5,1.1,0.8c1.2,0.5,2,1.1,2,2.2c0,0.9-0.8,2-2.5,2c-1.3,0-2.3-0.6-2.6-1.6L101.6,43.9z M78.6,45.9h1.8v-6.5h-1.8      V45.9z M78.6,38.3h1.8v-1.7h-1.8V38.3z M97.4,45.9h1.8v-6.5h-1.8V45.9z M97.4,38.3h1.8v-1.7h-1.8V38.3z M75.3,36.6h1.8v9.3      h-1.8V36.6z M72.1,39.4V40c-0.3-0.4-1.1-0.8-2.1-0.8c-1.7,0-3.3,1.4-3.4,3.2c0,0.1,0,0.1,0,0.2c0,0.1,0,0.1,0,0.2      c0.1,1.9,1.7,3.2,3.4,3.2c1,0,1.8-0.4,2.1-0.8v0.7h1.8v-6.5H72.1z M70.1,44.5c-1.1,0-1.9-0.9-1.9-1.9c0-1.1,0.9-1.9,1.9-1.9      c1.1,0,1.9,0.9,1.9,1.9C72.1,43.7,71.2,44.5,70.1,44.5 M86.9,39.4V40c-0.3-0.4-1.1-0.8-2.1-0.8c-1.7,0-3.3,1.4-3.4,3.2      c0,0.1,0,0.1,0,0.2c0,0.1,0,0.1,0,0.2c0.1,1.9,1.7,3.2,3.4,3.2c1,0,1.8-0.4,2.1-0.8v0.7h1.8v-6.5H86.9z M84.9,44.5      c-1.1,0-1.9-0.9-1.9-1.9c0-1.1,0.9-1.9,1.9-1.9c1.1,0,1.9,0.9,1.9,1.9C86.9,43.7,86,44.5,84.9,44.5"></path>				</g>			</g>		</g>		<g>			<path class="st0" d="M2.4,27.5c0.1-0.1,0.1-0.1,0.2-0.2c0.3-0.7,0.6-1.5,0.8-2.2c0.3-0.8,0.6-1.7,0.9-2.5c0.3-0.7,0.5-1.3,0.8-2    C5.4,20,5.6,19.5,5.8,19c0.2-0.5,0.4-1,0.6-1.5c0.2-0.5,0.4-1,0.6-1.5c0.3-0.7,0.5-1.4,0.8-2.1c0.3-0.7,0.5-1.4,0.8-2.1    c0.3-0.7,0.5-1.4,0.8-2c0.2-0.5,0.4-1,0.6-1.6c0.3-0.7,0.5-1.4,0.8-2c0.2-0.5,0.4-1,0.6-1.5c0.2-0.5,0.4-1,0.6-1.6    c0.2-0.4,0.3-0.8,0.5-1.2c0.1-0.2,0.2-0.3,0.5-0.3c3.8,0,7.5,0,11.3,0c0.7,0,1.4,0,2,0c0.7,0.1,1.4,0.2,2,0.3    c0.5,0.1,1.1,0.2,1.6,0.4c0.9,0.3,1.7,0.8,2.1,1.8c0.4,1,0.4,2,0.2,3c-0.2,1.1-0.7,2.1-1,3.1c-0.3,0.7-0.5,1.4-0.8,2.1    c-0.3,0.8-0.6,1.6-1,2.4c-0.3,0.8-0.6,1.7-0.9,2.5c-0.3,0.7-0.5,1.4-0.8,2c-0.2,0.5-0.4,1-0.6,1.5c-0.6,1.7-1.6,3.1-3,4.2    c-0.8,0.6-1.7,1.2-2.6,1.5c-0.8,0.3-1.6,0.6-2.4,0.8c-0.9,0.2-1.8,0.3-2.6,0.5c-0.2,0-0.4,0-0.6,0c-3.3,0-6.6,0-9.9,0    c-1.2,0-2.3,0-3.5-0.1C2.4,27.6,2.4,27.5,2.4,27.5z M13.7,23.3c0.9,0,1.8,0,2.7-0.4c0.8-0.3,1.4-0.8,1.8-1.5    c0.2-0.5,0.4-1,0.6-1.5c0.3-0.7,0.5-1.4,0.8-2c0.2-0.5,0.4-1,0.6-1.5c0.2-0.5,0.4-1.1,0.6-1.6c0.3-0.7,0.5-1.3,0.8-2    c0.3-0.8,0.6-1.6,1-2.5c0.3-0.7,0.6-1.4,0.8-2.2c0.2-0.7,0.2-1.2-0.5-1.7c-0.3-0.2-0.7-0.3-1.1-0.4C21,6,20.3,6,19.5,5.9    c-0.2,0-0.3,0.1-0.3,0.2c-0.1,0.3-0.3,0.7-0.4,1c-0.3,0.7-0.5,1.4-0.8,2c-0.2,0.5-0.4,1.1-0.6,1.6c-0.2,0.5-0.4,1-0.6,1.5    c-0.2,0.5-0.4,1.1-0.6,1.6c-0.3,0.7-0.5,1.3-0.8,2c-0.3,0.7-0.5,1.4-0.8,2.1c-0.3,0.7-0.5,1.3-0.8,2c-0.4,1-0.8,2-1.1,3    c-0.1,0.2,0,0.3,0.2,0.3C13.2,23.3,13.4,23.3,13.7,23.3z"></path>			<path class="st0" d="M82.5,6.8c-0.3,0.8-0.6,1.6-0.9,2.4c0,0,0,0,0.1,0.1c0.1,0,0.2,0,0.2-0.1c0.8-0.6,1.6-1.2,2.5-1.7    c1-0.5,1.9-0.9,3-1c0.5,0,1-0.1,1.5-0.1c1,0,1.9,0.1,2.8,0.5c0.9,0.4,1.6,1,1.5,2.1c0,0.1,0,0.2,0.1,0.2c0.1,0,0.2,0,0.2-0.1    c0.4-0.3,0.8-0.6,1.3-1c1-0.7,2-1.3,3.2-1.5c0.5-0.1,0.9-0.1,1.4-0.2c0.3,0,0.5-0.1,0.8-0.1c0.8,0,1.5,0,2.2,0.1    c0.9,0.1,1.7,0.5,2.2,1.3c0.4,0.6,0.5,1.3,0.4,2c-0.2,0.9-0.6,1.7-0.9,2.6c-0.3,0.7-0.5,1.4-0.8,2c-0.3,0.7-0.5,1.3-0.8,2    c-0.2,0.5-0.4,1.1-0.6,1.6c-0.2,0.5-0.4,1-0.6,1.6c-0.2,0.5-0.4,1-0.6,1.5c-0.2,0.6-0.4,1.1-0.7,1.7c-0.3,0.7-0.5,1.3-0.8,2    c-0.3,0.7-0.5,1.3-0.8,2c-0.1,0.2-0.2,0.4-0.2,0.7c-0.1,0.2-0.1,0.2-0.3,0.2c-0.2,0-0.3,0-0.5,0c-2.3,0-4.5,0-6.8,0    c-0.4,0-0.4-0.1-0.3-0.4c0.2-0.5,0.4-1,0.6-1.5c0.2-0.5,0.4-1.1,0.6-1.6c0.3-0.7,0.5-1.4,0.8-2.1c0.3-0.7,0.6-1.4,0.8-2.1    c0.3-0.7,0.5-1.3,0.7-2c0.2-0.5,0.4-1,0.6-1.5c0.2-0.5,0.4-1,0.6-1.5c0.2-0.6,0.4-1.1,0.6-1.7c0.1-0.3,0.2-0.7,0.2-1.1    c0-0.6-0.4-0.8-1.1-0.9c-1.2-0.1-2.1,0.4-2.7,1.4c-0.4,0.6-0.6,1.4-0.9,2c-0.2,0.5-0.4,1-0.6,1.6c-0.2,0.5-0.4,1-0.6,1.6    c-0.2,0.5-0.4,1-0.6,1.6c-0.2,0.5-0.4,1-0.6,1.5c-0.3,0.7-0.5,1.4-0.8,2c-0.3,0.7-0.5,1.4-0.8,2.1c-0.2,0.5-0.4,1.1-0.6,1.6    c-0.1,0.2-0.2,0.5-0.3,0.7c-0.1,0.2-0.2,0.4-0.5,0.4c-2.3,0-4.7,0-7,0c-0.4,0-0.4-0.1-0.3-0.4c0.2-0.6,0.4-1.1,0.7-1.7    c0.3-0.7,0.5-1.3,0.8-2c0.2-0.5,0.4-1,0.6-1.5c0.2-0.6,0.4-1.1,0.7-1.7c0.2-0.5,0.4-1,0.6-1.5c0.2-0.5,0.4-1.1,0.6-1.6    c0.2-0.7,0.5-1.3,0.7-2c0.2-0.5,0.4-1.1,0.6-1.6c0.2-0.5,0.3-1.1,0.3-1.7c0-0.3-0.4-0.6-0.8-0.7c-1.4-0.2-2.4,0.2-3.1,1.5    c-0.4,0.7-0.6,1.5-0.9,2.2c-0.3,0.7-0.5,1.3-0.8,2c-0.3,0.7-0.5,1.4-0.8,2c-0.3,0.7-0.5,1.3-0.8,2c-0.2,0.5-0.4,1-0.6,1.5    c-0.2,0.5-0.4,1.1-0.6,1.6c-0.3,0.7-0.5,1.3-0.8,2c-0.2,0.4-0.3,0.9-0.5,1.3c-0.1,0.2-0.2,0.2-0.4,0.2c-1.8,0-3.7,0-5.5,0    c-0.6,0-1.2,0-1.8,0c-0.3,0-0.3,0-0.2-0.3c0.3-0.6,0.5-1.3,0.7-1.9c0.3-0.7,0.5-1.4,0.8-2.1c0.3-0.7,0.5-1.3,0.8-2    c0.3-0.7,0.5-1.4,0.8-2.1c0.3-0.7,0.5-1.3,0.8-2c0.3-0.7,0.5-1.4,0.8-2c0.2-0.5,0.4-1.1,0.6-1.6c0.2-0.5,0.4-1,0.6-1.5    c0.2-0.5,0.4-1,0.6-1.5c0.3-0.7,0.6-1.4,0.8-2.1c0.2-0.5,0.4-1,0.6-1.5c0.1-0.2,0.1-0.2,0.3-0.2c0.1,0,0.2,0,0.3,0    c2.2,0,4.5,0,6.7,0C82.3,6.7,82.4,6.8,82.5,6.8z"></path>			<path class="st0" d="M44.6,27.8c-0.6,0-1.3,0-1.9,0c-0.8,0-1.7,0-2.5-0.1c-0.2,0-0.2,0-0.2-0.2c0.2-0.6,0.5-1.2,0.7-1.8    c0,0,0-0.1,0-0.2c-0.1,0-0.2,0-0.2,0c-0.3,0.2-0.5,0.4-0.8,0.6c-0.9,0.6-1.8,1.2-2.9,1.5C36.2,27.8,35.6,28,35,28    c-0.7,0.1-1.5,0.1-2.2,0.1c-0.8,0-1.6-0.2-2.3-0.7c-0.7-0.5-1.1-1.1-1.2-2c0-0.8,0.2-1.5,0.5-2.3c0.3-0.6,0.5-1.3,0.7-2    c0.3-0.7,0.5-1.4,0.8-2.1c0.3-0.7,0.5-1.3,0.8-2c0.2-0.5,0.4-1.1,0.6-1.6c0.3-0.6,0.5-1.3,0.7-2c0.2-0.5,0.4-1.1,0.6-1.6    c0.2-0.5,0.4-1,0.6-1.5c0.2-0.5,0.4-1.1,0.6-1.6c0.2-0.5,0.4-1.1,0.6-1.6C36,7.1,36,7,36.1,6.8c0.1-0.1,0.2-0.1,0.3-0.1    c1.9,0,3.8,0,5.8,0c0.5,0,1,0,1.5,0c0.3,0,0.3,0,0.2,0.3c-0.2,0.5-0.4,1-0.6,1.6c-0.2,0.5-0.4,1-0.6,1.5    c-0.2,0.5-0.4,1.1-0.6,1.6c-0.2,0.5-0.4,1.1-0.6,1.6c-0.2,0.5-0.4,1-0.6,1.5c-0.2,0.5-0.4,1.1-0.6,1.6c-0.2,0.5-0.4,1-0.6,1.5    c-0.2,0.5-0.4,1-0.6,1.5c-0.2,0.4-0.3,0.8-0.5,1.2c-0.1,0.4-0.3,0.8-0.4,1.2c-0.1,0.8,0.1,1,0.9,1.1c1.3,0.2,2.4-0.5,2.9-1.7    c0.3-0.8,0.7-1.6,1-2.5c0.4-1.1,0.8-2.3,1.3-3.4c0.3-0.7,0.5-1.3,0.8-2c0.3-0.8,0.6-1.7,0.9-2.5c0.3-0.7,0.5-1.3,0.8-2    c0.2-0.5,0.4-1.1,0.6-1.6c0.1-0.2,0.1-0.3,0.2-0.5c0.1-0.2,0.2-0.2,0.4-0.2c1.2,0,2.4,0,3.6,0c1.2,0,2.4,0,3.6,0    c0.3,0,0.4,0,0.3,0.3c-0.2,0.5-0.4,1.1-0.6,1.6c-0.2,0.5-0.4,1.1-0.6,1.6c-0.2,0.5-0.4,1-0.6,1.5c-0.2,0.5-0.4,1-0.6,1.6    c-0.3,0.7-0.5,1.3-0.8,2c-0.3,0.7-0.5,1.4-0.8,2.1c-0.3,0.7-0.5,1.4-0.8,2.1c-0.2,0.5-0.4,1-0.6,1.6c-0.3,0.7-0.5,1.3-0.8,2    c-0.2,0.5-0.4,1.1-0.6,1.6c-0.2,0.5-0.4,1-0.6,1.6c-0.1,0.4-0.3,0.8-0.4,1.1c-0.1,0.3-0.2,0.4-0.5,0.4    C46.2,27.8,45.4,27.8,44.6,27.8z"></path>			<path class="st0" d="M140.8,6.8c-0.3,0.7-0.5,1.4-0.8,2c0,0.1,0,0.2,0,0.3c0.1,0,0.2,0,0.2-0.1c0.8-0.6,1.7-1.3,2.7-1.7    c0.6-0.2,1.1-0.4,1.7-0.6c0.6-0.1,1.3-0.1,1.9-0.2c0.7-0.1,1.4,0,2,0.1c1,0.1,1.9,0.5,2.4,1.4c0.4,0.6,0.5,1.2,0.4,1.9    c-0.1,0.8-0.4,1.5-0.7,2.2c-0.3,0.7-0.5,1.4-0.8,2.1c-0.3,0.8-0.6,1.6-1,2.4c-0.2,0.5-0.4,1.1-0.6,1.6c-0.2,0.5-0.4,1-0.6,1.5    c-0.3,0.7-0.5,1.4-0.8,2.1c-0.2,0.5-0.4,1-0.6,1.6c-0.2,0.5-0.4,1.1-0.6,1.6c-0.1,0.3-0.2,0.7-0.4,1c-0.2,0.5-0.4,1.1-0.7,1.6    c0,0.1-0.2,0.2-0.3,0.2c-0.1,0-0.2,0-0.3,0c-2.3,0-4.6,0-6.9,0c-0.1,0-0.1,0-0.2,0c-0.2,0-0.2-0.1-0.2-0.3c0.3-0.9,0.7-1.8,1-2.7    c0.3-0.8,0.7-1.7,1-2.5c0.3-0.8,0.6-1.7,0.9-2.5c0.3-0.8,0.6-1.6,1-2.4c0.3-0.7,0.5-1.4,0.8-2.1c0.2-0.5,0.4-1,0.6-1.5    c0.2-0.5,0.3-1.1,0.4-1.6c0.1-0.4-0.3-0.6-0.6-0.7c-0.9-0.2-1.7-0.1-2.4,0.5c-0.4,0.3-0.7,0.8-0.9,1.2c-0.4,1.1-0.8,2.2-1.3,3.3    c-0.3,0.8-0.7,1.7-1,2.5c-0.3,0.8-0.6,1.7-0.9,2.5c-0.3,0.8-0.6,1.6-0.9,2.4c-0.3,0.7-0.5,1.4-0.8,2.1c-0.2,0.5-0.4,1.1-0.6,1.6    c-0.1,0.2-0.2,0.2-0.3,0.2c-2.4,0-4.9,0-7.3,0c-0.3,0-0.3,0-0.2-0.3c0.3-0.7,0.5-1.3,0.8-2c0.2-0.5,0.4-1,0.6-1.6    c0.2-0.5,0.4-1,0.6-1.5c0.2-0.6,0.4-1.1,0.6-1.7c0.2-0.5,0.4-1.1,0.6-1.6c0.2-0.5,0.4-1,0.6-1.5c0.2-0.5,0.4-1.1,0.6-1.6    c0.3-0.7,0.5-1.4,0.8-2.1c0.2-0.5,0.4-1.1,0.6-1.6c0.1-0.4,0.3-0.7,0.4-1.1c0.2-0.5,0.4-1,0.6-1.6c0.3-0.7,0.5-1.3,0.8-2    c0.1-0.2,0.2-0.5,0.2-0.7c0.1-0.2,0.2-0.3,0.3-0.3c0.3,0,0.7,0,1,0c2,0,4,0,6,0C140.5,6.7,140.6,6.8,140.8,6.8z"></path>			<path class="st0" d="M114.6,26.5c-0.1,0.1-0.2,0.1-0.3,0.1c-0.8,0.5-1.6,0.8-2.5,1.1c-0.6,0.2-1.2,0.3-1.9,0.3    c-0.9,0-1.8,0.1-2.7,0.1c-0.9-0.1-1.7-0.1-2.5-0.6c-0.9-0.6-1.4-1.3-1.3-2.4c0.1-1.4,0.6-2.6,1.1-3.8c0.8-1.6,2-2.8,3.6-3.6    c1-0.5,2-0.9,3-1.3c0.7-0.2,1.4-0.4,2.1-0.6c0.9-0.3,1.9-0.5,2.8-0.8c0.9-0.3,1.8-0.6,2.6-1.2c0.8-0.6,1.2-1.4,1.3-2.3    c0-0.4-0.2-0.8-0.7-0.9c-0.9-0.1-1.8-0.1-2.6,0.4c-0.4,0.3-0.6,0.7-0.8,1.1c-0.2,0.5-0.3,0.9-0.5,1.4c0,0.1-0.2,0.2-0.3,0.2    c-0.5,0-0.9,0-1.4,0c-0.1,0-0.3,0-0.4,0c-1.6,0-3.2,0-4.8,0c-0.4,0-0.4,0-0.3-0.4c0.4-1,0.6-2,1.3-2.8c0.6-0.8,1.4-1.3,2.3-1.8    c0.8-0.5,1.7-0.8,2.7-1.1c0.5-0.2,1.1-0.3,1.7-0.4c0.9-0.2,1.8-0.3,2.7-0.4c0.6-0.1,1.2-0.1,1.8,0c0.5,0,1,0.1,1.5,0.1    c0.8,0.1,1.6,0.2,2.4,0.5c0.6,0.2,1.1,0.4,1.6,0.7c0.8,0.4,1.2,1.1,1.4,2c0.1,0.8,0,1.5-0.2,2.2c-0.3,0.9-0.6,1.8-1,2.8    c-0.3,0.8-0.6,1.6-0.9,2.4c-0.3,0.7-0.5,1.4-0.8,2.1c-0.3,0.7-0.5,1.3-0.8,2c-0.3,0.7-0.5,1.4-0.8,2c-0.3,0.7-0.5,1.3-0.8,2    c-0.3,0.7-0.5,1.3-0.8,2c-0.1,0.2-0.2,0.4-0.5,0.4c-2.1,0-4.3,0-6.4,0c-0.1,0-0.1,0-0.2,0c-0.2,0-0.3-0.1-0.2-0.3    c0.1-0.3,0.2-0.6,0.3-0.8C114.6,26.6,114.6,26.6,114.6,26.5z M112.9,25c0.9,0,1.5-0.3,2-0.8c0.4-0.3,0.6-0.8,0.8-1.2    c0.3-0.7,0.5-1.4,0.8-2.1c0.2-0.5,0.4-1,0.6-1.6c0.2-0.5,0.4-1,0.6-1.5c0-0.1,0-0.2,0-0.2c0,0-0.2,0-0.2,0    c-0.2,0.1-0.4,0.2-0.6,0.3c-0.7,0.3-1.5,0.6-2.2,1c-0.6,0.3-1.2,0.8-1.5,1.4c-0.2,0.4-0.3,0.9-0.5,1.3c-0.3,0.7-0.5,1.3-0.8,2    c-0.2,0.5,0,1,0.4,1.2C112.4,24.9,112.7,25,112.9,25z"></path>			<path class="st0" d="M51.1,27.8c0.1-0.4,0.3-0.7,0.4-1.1c0.2-0.5,0.4-1.1,0.6-1.6c0.2-0.5,0.4-1,0.6-1.6c0.2-0.5,0.4-1.1,0.6-1.6    c0.2-0.6,0.4-1.1,0.6-1.7c0.2-0.5,0.4-1.1,0.6-1.6c0.2-0.5,0.4-1,0.6-1.5c0.2-0.5,0.4-1.1,0.6-1.6c0.3-0.7,0.5-1.4,0.8-2.1    c0.2-0.5,0.4-1.1,0.6-1.6c0.2-0.5,0.4-1,0.6-1.5c0.2-0.5,0.4-1,0.6-1.6c0.2-0.6,0.5-1.3,0.7-1.9c0-0.1,0.2-0.2,0.4-0.2    c0.8,0,1.6,0,2.5,0c1.5,0,2.9,0,4.4,0c0.3,0,0.3,0,0.2,0.3c-0.3,0.7-0.5,1.3-0.8,2c-0.1,0.4-0.3,0.7-0.4,1.1    c0,0.1-0.1,0.1-0.1,0.2c0,0.1,0,0.2,0,0.2c0.1,0,0.1-0.1,0.2-0.1c0.8-0.7,1.5-1.5,2.3-2.2c0.7-0.6,1.6-1.1,2.6-1.3    c0.6-0.1,1.2-0.2,1.8-0.2c0.2,0,0.2,0.1,0.2,0.3c-0.1,0.4-0.3,0.8-0.4,1.2c-0.3,0.7-0.5,1.4-0.8,2.1c-0.3,0.7-0.5,1.4-0.8,2.1    c-0.1,0.2-0.2,0.4-0.2,0.7c-0.1,0.4-0.2,0.4-0.5,0.4c-0.9,0-1.9,0-2.8,0.1c-1.2,0.2-2.2,0.8-2.9,1.9c-0.3,0.5-0.5,1.1-0.7,1.6    c-0.2,0.5-0.4,1.1-0.6,1.6c-0.2,0.5-0.4,1-0.6,1.5c-0.2,0.5-0.4,1.1-0.6,1.6c-0.2,0.5-0.4,1-0.6,1.5c-0.3,0.7-0.5,1.4-0.8,2.1    c-0.3,0.7-0.5,1.3-0.8,2c-0.1,0.1-0.1,0.3-0.2,0.4c0,0.1-0.1,0.1-0.2,0.1c-1.5,0-3.1,0-4.6,0c-0.8,0-1.7,0-2.5,0    C51.5,27.8,51.4,27.8,51.1,27.8z"></path>			<path class="st0" d="M153.6,25c0.1,1.6-1.3,2.8-2.8,2.8c-1.8,0-2.9-1.2-2.9-2.8c0-1.5,1.2-2.8,3-2.8    C152.2,22.2,153.7,23.3,153.6,25z M153.2,25c0.1-1.2-1.2-2.4-2.4-2.4c-1.5,0-2.5,1.1-2.5,2.4c0,1.3,1,2.3,2.5,2.4    C152,27.4,153.3,26.3,153.2,25z"></path>			<path class="st0" d="M152,26.4c-0.3,0.1-0.5,0.1-0.6-0.1c-0.1-0.2-0.3-0.4-0.4-0.6c-0.1-0.2-0.4-0.3-0.6-0.4    c-0.2-0.1-0.3,0-0.4,0.3c0,0.3,0,0.5,0,0.8c0,0.2,0,0.3-0.2,0.2c-0.2,0-0.2-0.1-0.2-0.3c0-0.8,0-1.6,0-2.5c0-0.2,0.1-0.2,0.2-0.2    c0.4,0,0.8,0,1.1,0c0.5,0,0.8,0.3,1,0.7c0.1,0.2-0.1,0.6-0.3,0.7c-0.1,0.1-0.3,0.2-0.3,0.3c0,0.1,0.2,0.2,0.2,0.3    C151.6,25.9,151.8,26.1,152,26.4z M150.5,24.9c0.1,0,0.2,0,0.3,0c0.2,0,0.5-0.3,0.5-0.5c0-0.2-0.2-0.4-0.4-0.4    c-0.2,0-0.5,0-0.7,0c-0.1,0-0.2,0.1-0.2,0.2c0,0.1,0,0.2,0,0.2C150,24.9,150,24.9,150.5,24.9z"></path>		</g>	</g></g></svg>